<svg xmlns="http://www.w3.org/2000/svg" width="1440" height="162"><g fill="#131313" fill-rule="evenodd"><path d="M551.38 140.4h1.1c1.5 1 3.7 0 3.9-2.4 0-1.1-1.2-1-1.1-2.1-2.7-.5-4 .6-3.8 3.4.1.2.3.4.4.6-.3.1-.5.3-.5.5m-102.87-4.7c-.2.5.1.9.7 1.2 1.4-.2 2.5-.8 1.4-1.2h-2.1M431 133.2c1.4-.1 3-1.5 1.4-2-2.1.1-2.4 1.6-1.4 2m128.19 6.9c0 .3.8.2 1.4.2 0-.2-.9-.1-1.4-.2m-.9-.1c2.1-.7 6.3-.5 8-1.2-2.9-.7-6.9.3-8 1.2m-157.01-11.5c1.9-1.2.8-1.6-1.1-2.4-2.1.6-3.4 2.5 1.1 2.4m-8.8-24.6c-.41 1.9 3.1 3.5 2.9 4.7.1.2 1.1.2 1.8.2.3-2.5-3.4-4.7-4.1-7-3.51-.2-1.21 1.8-.6 2.1m990.37 32.7c-1.5-1.3-4.1.4-4 1.7 1.9-.1 4.1 0 4-1.7m-45.13-23.6c0-.3.1-.6.6-.5-.1-.3-.1-.7-.1-1-.6 0-1.2.1-1.8.1 0 .5.1 1 .1 1.5.4-.1.8-.1 1.2-.1m8.2-13c-1.5 3.6-3.5 6.4-.5 9.3 9.21 3.2 10.62-11.8.5-9.3m-28.71 7.9c0 1.3.1 2.5 1.4 2.9 1-.9 2.1-3.5-1.4-2.9m11.7-1.1c-.3-1.5 1.8-2.1.4-3-1.1 0-1.9.2-2.4.6-.1 1.6.9 2 2 2.4m12.31-3c.9-1.3-2.1-1.4-1.8-.4.7 0 .8.6 1.8.4m-51.43-11.7c-1.4-1.6-2-4-4.8-4.3-.4.5-.9.2-2.4.6-1.1 1.4-1.1 4.9-.1 6.7 3.2 1.9 6.7-.6 7.3-3m-17.81 1.1c-.1.7-.8 1-.5 2 2.1.3 2.3-2 .5-2m-6.3 2.6c-.4-1.4 1-1.6.4-3-2 .3-2.4 2.7-.4 3m108.17-18c.7-1 1.9-1.5 2.1-2.9-1.7-.2-1.1-.2-2.8.2.1 1.5-.9 2 .7 2.7m-4.4 9.7c-.4-.9 1.7-2.2-.2-2.5-.3.4-1.2 2.5.2 2.5"/><path d="M1450-128.1c-.8-2.8-6.4-4.2-10.1-3.6v-11.1h-20.12c.2-.5.5-1.1.8-1.6-1.1-1.1-2.6-1-4.3-.5-1.5-.4-3.6-1.1-4.5-.7-.4-1.4-1.9-.2-2.6-.9-.8-1.7-.1-3.1 1.6-4.4-.4-.5-.8-1.1-1.2-1.6-1.6.5-4.01 1.5-4.71 1.6-.2.3-.2.7-.1 1.1.6 1.4 2.4-.6 2.8 1.2-1.1.9-1.6 0-2.4.1-.9.7-.6 1.7-1.5 2.5-1.4.5-2.8-.7-4.6-.3-2.3.6-4.2 2.1-5.7 3.5h-16.62c-1.2-1.6-2.4-3.3-3.3-5.1.2-.1.4-.1.6-.3-.1-.7-.5-.7-1-.6-.4-1-.7-1.9-.9-2.9 3.1-.5 7-1.3 8.4-3.6.2-.2-.4-.8-.2-1 .7-.8.4-.5.8-1.5.3-.9 0-2-1.3-3-.2.2-.1.4-.5.6-1.9-2.2-4.1-2.3-6.6-1.8-1.1-1.9-2.4-4-3.6-5.6 0-.7-.1-1.5-.1-2.2 2.9-5.6-.3-7.8-.9-14.5.9-2.1 2.8-3.6 4-5.5 2.4-.4 2.5-2.4 5.8-2.1-.4-3.1 2.9-3.6 2.3-6.8-3.9-1.7-4.1 2.5-7.9 2.3-1.2 6.6-7.8 9.2-13.81 12.3-3 .8-5.5-.8-7.5.5-.7 1.1-1 2.6-2.51 3.2-3-.5-6.7-.3-7.7-2.6.7-1.8 1.6-3 .8-4.9-5-1.4-7.81 1.8-10.01 3.7-4.7 1.2-8.6 3.8-12.81 2.1 0-1.4-.1-2.7-.2-4 2-4.3 7-6.4 9-10.7-.6-1.4-1.8-2.1-2.4-3.4-2.9-.4-4 0-7 .4-1.5 2.7-.2 6.2 1.6 8.3-2 .9-1.5 3.7-3.5 4.6-1.7-2.9-6.7-4-10.91-2-.8 2.3.5 3.5.4 6.2-4.6-.2-5.8 2-7.3 4 .3 2.5 3.2 2.6 3.5 5.1-3.3 3-10.3 3.2-14.21 5.7-3.3 3.7-6.6 7.5-9.5 11.6.6 1.6.6 3.7 1.9 4.7-.3-.7 2.9-.9 2.7-.2 1.6 1.5-1.3 2.5-.8 4.5.1 1.4 1.8 1.1 1.3 3 0 .5-.1 1-.2 1.4h-7.61c.1-1.6-.3-3.1-1.9-3-1.1.9-2 1.9-2.8 3h-32.13c-.2-1.5-.5-2.8-1-3.9.5-1.1.9-2.1 1.1-3 2.5 3.5 9.01 4.3 12.41 1.3 3.3-6.4-1.8-10.9-7.5-11.1-2.9 1.6-6.1 2.9-5.9 7.2l-.1-.1c-.8.6-.5 1.9-.4 3.1.1.4-.2.5-.5.7-1.7-3-4.31-5-6.71-7.3-1.5.5-2.8-.2-4.2-.6 0-.3.1-.6.2-.9-.4.2-.7.5-1 .7h-.2c-8.31-1-17.22 1.2-21.52 6.9-1.6.5-1.3-1.1-2.4-1-.1 1.1.7 1.3.7 2.3-2.5.7-5.7.8-6.8 2.7-3.7.4-8.01 2.3-11.81 3.1h-5.8c-1.4-.5-2.51-1.7-3.21-3.7l-5.2.3c-.2 1.2-.5 2.4-.9 3.4h-12.51c1.1-.7 2.3-1.2 4.3-1.2-.6-3.1 1.5-.7 2.2-1.9 0-.8-.1-1.5-.1-2.3-1.3-.2-1.2.8-1.8 1.2-.3 0-.6 0-.8.1h-.2c-.1-1.8-1.9-1.6-1.4-4-3.5 0-4.1 5.5-7.3 3.9.6-.3.5-2.9-.1-1.2-1.1 1.3-2.6 2.2-3.4 1.3 0-.3-.1-.6-.6-.5 1.3 1.9.5 3-1.51 3.5.1.3.1.7.1 1h-4c0-.4-.1-.9-.1-1.3-.8.1-1.3-.2-1.8-.5.2.8-.3 1.2-.4 1.8h-13.91c0-.7-.1-1.5-.1-2.2-1.6-.7-3-.1-3.9 1-1.9.1-3 .5-3.2 1.2h-4.31c.9-.2 1.9-.3 1.7-1.5 2.4-.3 4.9-.6 6.4-1.2 5.4-.4 13.01-.1 15.01-1.7-1.5-1.8-10-.6-13.1.2-10.21 0-19.72.3-26.52 1.5.2-.4.3-.8.2-1.3-1.4.1-1.8-.9-3.5-.4.5 1.6-1.1 1.3-1 2.4l.3.3c-.5.1-1 .2-1.4.4 6.5 1.3 13.9-.6 20.2 0 .1.5 0 1.1 0 1.5h-15.8c-2.5-.3-5.2-.3-8.01-.3.2-1.3.2-2.7-.4-4.1-.6-4.2-6-6-10-4.7-1.5.5-2.3 2.4-3.71 2.6-.2 1.8-1.1 3-1.2 4.9-3.1-1.2-6.3-2.4-11.2-3-1-1.5 2.2-2.8 3.7-4.1 2.5-1.3 8.3-1.6 8.7-3.7-2.4-.2-3 .3-5 .2-2 .6-2 1.4-4.4 2.2-.6.2-2 0-2.5.2-.4.2-.1.6-.6.7-1 .3-2.81.4-3.81.7-1.1.3-1.9.8-2.5.9-1.6.4-4.8.3-6.9.9-1 .3-.9.7-1.9.9-1.61.2-4.01-.2-5.01.4-3.4-.4-7.3-.6-10.1-1.2.2-.2.4-.5.5-.8 2.8-.7 7.1-.9 11.5-1 2.6-1.1 8.5-2.3 6.3-3.7-4.5-.7-6.9.9-11.9.7.2.8-1.3 1-1.9 1.5l-3.9.3a4.2 4.2 0 0 0-4.11-2.8c-2.3 0-4.1 1.6-4.2 3.6-3.6.3-6.9.2-9.01-1-.5-.9 1-1 .6-1.8-1-.1-1.6 0-2 .1-.9-.7-2-1.2-3.3-1.2-1.5 0-2.9.7-3.7 1.7-2.4-.5-4.2-1.1-7.91-1.1-2.5-.7-2.1-1.8-2.5-2.8-.3.9-.6 1.9-1.1 2.7-.8-.5-1.8-.8-2.8-.8-2.2 0-4 1.3-4.6 3-1.61.6-4.91.6-5.31 1.6-1.3.2-2 .1-2.9.1v-.4c0-2.6-2.3-4.6-5.1-4.6-2.21 0-4.01 1.1-4.81 2.8-1.2-.1-2.6.3-4.1 1.3-1.3 0-2.5 0-3.7.1-.2-2.5-2.5-4.5-5.41-4.5-2.9 0-5 1.8-5.4 4.1-1.3.6-1.6 1.3-3.7 2-.6.2-2 0-2.5.2-.4.2-.1.6-.6.7-.21 0-.41.1-.61.1.4-.6.6-1.4.6-2.2 0-2.8-2.5-5.1-5.7-5.1-2.7 0-5 1.6-5.6 3.9-.2.1-.3.2-.5.3l-.1-.1c-2.2-.4-4.01-.2-5.81.1-.1-.8-.4-1.5-.9-2.1 3.6-.1 7.3-1 11-2.1-2.5-2.5-5.6 1.1-8.3.9-1.2-.3-2.5-.1-3.8.2-1.1-.9-2.5-1.4-4-1.4-3.3 0-6.01 2.4-6.01 5.4 0 .5.1 1 .3 1.5l-6.3.6c.3-.6.5-1.3.5-2.1 0-3.1-2.8-5.6-6.3-5.6-3.31 0-6.01 2.3-6.31 5.2-.9.2-1.1.6-.9 1.1-1.7.1-3 0-4.2-.1.1-.2.1-.3.1-.5 0-3.3-2.9-5.9-6.61-5.9h-.2c-2.4 0-4.6 1.1-5.7 2.9 0-.2-.1-.5-.2-.8-.6 1.8-1.1 3.6-3.1 4.8h-1.8c.1-.1.2-.1.3-.2l-.9-1.5c0 .1-.1.3-.2.4-.1-3-2.91-5.4-6.31-5.4-3.4 0-6.3 2.5-6.3 5.6 0 1 .4 2 .9 2.8h-2.6c-1.1-.4-2.61-.6-4.31-.7.3-.7.5-1.4.5-2.1 0-3-2.7-5.4-6-5.4-2.8 0-5.1 1.7-5.8 4-2.11-.1-4.31 1.2-6.41 1.6v-.3c0-2.4-1.8-4.3-4.3-4.9-.1-.9-.4-1.8-1-2.9-1.5.7-3.1 1.4-4.71 2.1 0 .9 0 1.6.1 2.2-1.4.8-2.7 1.7-1.8 3.1 0 .2.1.2.2.3v.2c0 .9.3 1.7.7 2.4-1.6.5-.9 1.7-2.6 2.2.5.8 1 1.7 1.5 2.5 2.2-.9 1.7-.6 3.5-2.1-.1-.3-.3-.6-.4-.8.9.5 2 .8 3.2.8 2.3 0 4.3-1.2 5.2-2.9.6-.1 1.1-.2 1.6-.3.6-.3 1.1.5 1.6 1 1.4-1.2 2.61-1.1 3.91-1.3 0 .2.1.4.2.6-.9.1-1.8.1-2.7.2-3.7 1.7-9.1 2.7-8.1 6.1 0 .2.1.3.2.4h-12.61l-.3-.3c-.1.1-.3.2-.4.3h-.4c-.3-.5-.6-.9-.8-1.3-1.2.4-2 .8-2.6 1.3h-13.82c.9-.4 1.6-.7 2-.7.2-.7.2-1.4.1-2.1-.9-2.4-3.3 1.1-4-2.3 1.6-1.6 2.3.1 3.4 0 1.2-1.3.8-3 1.9-4.4.8 0 1.5 0 2.3-.1h.2c-.1.2-.1.5-.1.7 0 1.2.5 2.3 1.3 3.1-1.6.5-1.5 1.5-2.6 2.2.4 2 1.9-.6 2.2 1.4 1.7-.5 1.5-1.5 2.6-2.2.6.2 1.21.3 1.91.3 3 0 5.4-2.1 5.4-4.8 0-1.2-.5-2.3-1.4-3.2.4-.3.7-.7 1-1 .1 0 .3.1.5.2 1.4-1.9 2.9-2.1 5.3-4.4-.6-1.4-1.3-1.4-2-1-.8-3.1-2.4-5.1-4.2-6.8-.1-2.2-2.2-4-4.7-4h-.2c-.1-.2-.3-.3-.4-.4-.1.2-.1.3-.2.4-.3 0-.6.1-.9.2-.7-.3-1.4-1.3-1.9-2.2-1.1 1.1-1.9.9-2.4-.6-3.3.1-7.9 1.6-11.41.1-2.9 1.9-3.3 1.2-6.3 1.8-.4.3-.7.6-1 1-1.7.3-3.5 1.6-5.21 1.2-.2.7.4 1.4-.6 2 1.1.7 2.3.8 3.5.8-.8 1.6-1.6 3.2-3.7 4.5 1.1 2.5-.1 4.4-.8 6.5.4.6 1 .9 1.5 1.2-.7.7-1.1 1.5-1.3 2.3-.6-1.8-2.4-3.1-4.6-3.1-2.6 0-4.8 1.9-4.8 4.3 0 1.7 1.1 3.1 2.7 3.8-.2.1-.3.3-.5.5-1.2.2-2.4-.6-3.3-1.6-.1-.3-.4-.7-.5-1 0 .1-.1.1-.1.2-.5-.9-.81-1.8-.91-2.6 1.6-1.1 3.7-1.3 1.5-3.5 5.2-3.8 8.1-8.7 13.21-10.3.9-1.8-2 .7-2.4-1-.2.2-.5.4-.7.6.1-.4.2-.7.2-1.1 0-1.7-1.2-3.1-2.9-3.6-.1-.2-.2-.3-.3-.4-.1.1-.2.2-.3.2h-.2l-.3-.3c-.1 0-.2.1-.2.2h-.2c-2.4 0-4.3 1.8-4.3 3.9 0 1.3.8 2.5 2 3.2-2.3-.4-4.5-.7-7.01.9-3.9 0-7.7-1.5-12 1.8-2.01-.2-4.01-1-5.91-2.6.5-1.1 2.1-4.2 3.6-3.8.2-1.4.2-2.8.2-4.2.1 0 .3-.1.4-.1-.2-1 .3-1.9-.3-3 .1-1.7.4-3.5 1.3-5.2-2.6-2.9-4-6.6-4.8-10.3-2.9.5-5.5-2.8-8.2-4.4-3.31-.3-6.71-.2-10.02 0-.1-.2-.3-.4-.4-.7-.3.2-.7.4-1 .6.1.1.1.2.1.3h-.6c-2.3 2.6-6.5 3.2-7.5 6.3-2 .9-3.9.3-5.7-.5.7-2.3-3-4.3-3.2-4.8-2.01-.9.4 1.9-1.81 2.3-.4-.5.2-.8.5-1.2-3.8.5-7.4-2.5-11.7 3 .3 2.6-2 5 1.3 7.9-3.2 1.5-4.2-.7-7.81.5-1.6 1.5-.2 3.2-2.1 4.7-2 1.7-3.4-1.5-5.2-1.7-1.3.7 1.3 4.8 2.6 3.1 3.5 5 2.3 15.5-5 10.2-.9.7-1.81 1.5-2.71 2.2 1.4 1.6-.1 3 2.4 4.7 1.5.4 3.2-1.5 4.6-.8 1.2 1.8.8 3.3-1.3 4.8 3 1.7 1.5 2.4 2.8 5.2-.8.9-1.5 1-2.1.2-.1.4-.1.9-.1 1.4-.7-.8-1.4-1.6-2.2-2.2 2-3-1.9-7.2-5.9-3.7.1.6.2 1.1.7 1.7-1 .9-2.1 1.7-3.1 2.6h.2c-1.2.8-2.2 1.6-3.1 2.6-.7.2-1.4.8-1.6 1.9 0 0 .1 0 .1.1-.1.2-.3.4-.4.6-.8.3-1.5.5-2.3.7.1 0 .2 0 .2-.1-1.8-.3-4.01-.3-6.11-.2-.1 0-.2 0-.3-.1-.6-2.6-1.6-4.7-2.7-6.4 1.3 0 2.6-.6 4-1.8 1-3.9-3.8-6.4-6.7-5.3.1-.4.1-.7-.2-1.2-3.8.5-8.21.7-9.71-3.1.2-1.1 1.9-1.7 3.2-2.5.8-7.6-8-3.5-12.6-4.8.4-1.3 0-2.8-1.31-4.6-3.5.7-5.9 4-9.4 3.3 1.5-.5 1.7-1.3.7-2.4-2 .2-1.8.9-3.5 2 .8 2 .5 3.8-1 5.2a18.9 18.9 0 0 1-1.01-5c.5-.1 1.2-.2 1.8-.4.9-1.3 1.8-2.4 2.7-3.6.3.4.7.6 1 .4-.4-.5-.4-.9-.4-1.3 1-1.4 1.8-2.8 2.4-4.5-.4-2.7-2.5-4.7-3.5-8.2-1.3-1.2-3.6-1.1-5-2.2.2-1.6 3.7-.7 3.1-2.8-1.9-.6-3.6-.2-3.2 2.2-6.9-.1-6.9 3.3-10.8 6.2a15 15 0 0 0 0 7.6c-3.31 1.1-3.61 5.7-1.81 9.1-1.3 1.7-1.2-1.6-2.3-.7 1.4 2-1.9 1.7-2.7 2.2 2.7 2.4-1.1 5-2.4 2.7 2.7-.8 1.2-3.5.8-4.4-.5 1.2-2.2 2.8-4 2.3-.5-1.9 1.8-3.1.2-5.4-1.7 1.4-4.81 4.4-6.61 2.4-1.7 4.1-5.4 3.5-8.5 5.9h-.3c-.3.2-.6.5-.9.8-.9-.3-2.31-3.8-2.21-1.9.6 1.3 1.4 1.9 1.8 2.4-.7.8-1.4 1.6-1.9 2.5-1.4.1-2.9 0-3.7 1.2 1 0 2.1-.3 3.2-.4-.3.7-.6 1.5-.8 2.3-.6.2-1.4.4-1.3.2-.3 1 .5 1 1.1.7-.2 1-.2 2-.1 3.1-.6.7-3.2-.2-1.9 1.2-3 0-6.6.7-8.5 1.1h-3.81c-1.5-1.4-2.7-3.3-4.8-3.9 0-1.8-.6-2.7-1-3.9 1.7-1.7 3.6-3 5.9-4 .5-.8.3-2.2 1.1-2.6 3.5.8 4.2-1.6 7.2-1.3 1.1-2.2 2.9-3.6 3.5-6.4 1.2-6.8-2.5-9.2-4.9-12.8-4.1-1.1-9.9-2.4-12.9 0-2.3-.3-2.6.3-4.4-.3-.1-2.2-2.81-2.2-3.71-3.8-1.1 0-2.3-.1-3.5-.2-1.2-2.6-1.3-6.2-1.5-9.9-.5 2-.4 4.2-2.2 5.6-1-.1-1.9.1-2.6.3-.2 0-.3-.1-.5-.1-.6.2-1 .5-1.3.9-1.6.9-3.21 1.8-6.01 1.3.3-1.5.1-2.5-1.6-2.3-.4 1.6.6 2 .2 3.6-3.5 4.8-9.81-.1-15.01-1-.4-1.1-1.4-1.5-1.1-3.2-3.5.2-5-3.3-8.31-1.9-1.7 2.7 2.2 5.5 3.9 7.8 3.8.6 7.5 1.2 9.1 3.7-2.1 1.6-5.4 1.8-8.2 2.5-.7-1.3-2.4-.5-3.5-1.1-.7-.4-.6-1.3-1.2-1.9-1.3-1.3-3.6-1.4-4.7-2.1-.4-.3-.9-1.3-1.6-1.9-.7-.6-2-1-2.6-1.5-.4-.3-.1-1.1-.4-1.4-.3-.4-1.3-.2-1.7-.6-1.6-1.6-1.5-3.3-2.81-4.6-1.4 0-1.8-.9-3.5-.7 0 4.3 4.1 5 5.7 7.9.9 2.8 3 5.6 2.1 8.6-4.9 1.2-7.6 4.9-10.8 8.1-.8.1-1.7 0-2.6-.1-.5-.2-1-.3-1.6-.3-.2 0-.4.1-.6.1-3.21-.4-6.71-1-9.71-.1.2 2.8 3.1 3.1 4.5 4.8-.6.1-1.3-.1-1.4.4 1.5 1.4 2.8 1 4.2.6.2.2.4.4.7.6-.3 0-.7.1-1 .4 1.7 1.2 5.2.8 5.1 3.5 1.8-.1 3.2.2 3.4 1.6.4-1.1 1.5-1.4 3.2-1.1.6.8.8 1.7.7 2.7-.3-.5-.7-.9-1.1-1.3-2.1-.1-1.5 1.9-1.2 3.6-.7.2-1.4.3-2.2.4-.1-.1-.2-.1-.3 0-.3 0-.6.1-1 .1-.7-.8-1.8-1.3-3.1-1.3-2 0-3.7 1.3-4.1 3.1-2.6.1-5.3.5-7.9.7 0-2.3-2-4.1-4.4-4.1-2.41 0-4.41 1.8-4.41 4-.8-.2-1.6-.4-2.3-.8-.5-.8 1-.9.6-1.7-2.3-.1-2.8.4-2.5 1.1-1.3.1-2.4.1-3.4 0-.7-1.6-2.4-2.8-4.41-2.8-1.4 0-2.6.5-3.5 1.4-.9-.1-1.9-.2-3.1-.2-2.5-.7-2.1-1.8-2.5-2.8-.5 1.7-1 3.3-2.6 4.5-.6-1.9-2.5-3.2-4.71-3.2-2.7 0-4.9 2-5 4.5-.7.2-1.2.4-1.4.8-2.1.2-2.7 0-4.8 0 .1-.2.1-.5.1-.7 0-2.6-2.41-4.8-5.31-4.8-2.9 0-5.1 2.1-5.2 4.7-1.9 0-3.8.1-5.71.2v-.1c0-2.8-2.5-5.1-5.5-5.1-.7 0-1.4.1-2.1.4-1.1-.3-2.4-.6-3.9-.6-.1 0-.2.1-.3.1.3-1.3.1-2.9-.9-4.7-1.5.7-3.11 1.4-4.71 2.1-.2 3.1.7 4.7 1.8 5.3-.3.3-.5.6-.8.9a5.7 5.7 0 0 0-5.5-3.8c-3.2 0-5.8 2.4-5.8 5.3s2.6 5.3 5.8 5.3c1.6 0 3.1-.7 4.2-1.7.1.6.3 1.2.5 1.9 2.8 3.6 5.9 4.1 8.4 3.1.5.3 1 .6 1.4.9-1.3.4-2.4 1.1-3.2 2.1h-5.8a6.87 6.87 0 0 0-10-1h-5.11c-.5.1-.9.3-1.4.4a7.25 7.25 0 0 0-5.5-2.4h-.2a7.4 7.4 0 0 0-6.01 3h-3.8c1.4-1.1 2.6-2.4 3.3-4.1.4-1.5-.9-3.9-.4-5.3 1-2.9-3-3.7-3.7-6.1-.9-.3-1.9-.5-2.9-.6a6.12 6.12 0 0 0-8.01 1.8c-1.6.9-3 2-4 3.4 0 2.6-1.5 4.4 0 7.8a8.6 8.6 0 0 0 2.3 3h-4.8c-1.2-1.4-3-2.3-5.1-2.3-2.11 0-3.91.9-5.11 2.3h-6.8c-1-1-2.3-1.7-3.81-1.9-7.6-6.8-19.61-5.4-32.62-1.9-2.4-1-4-2.8-4.5-4.7v-.1c.9.8 2.1 1.3 3.4 1.3 2.6 0 4.7-1.9 4.7-4.3s-2.1-4.3-4.7-4.3c-.9 0-1.7.2-2.4.6a5.3 5.3 0 0 0-1.7-3.3c.2-1.9 1.1-3.3 1.8-4.9.6.4 1.4.6 2.3.6 2.3 0 4.2-1.7 4.2-3.8 0-2.1-1.9-3.8-4.2-3.8-1.1 0-2.1.4-2.8 1-.6-.8-1.2-1.5-1.7-2.3-2.4-1-5.71-.6-9.01.3h-.1v.1c-1.1.3-2.3.8-3.5 1.2-.6.1-1.1.3-1.6.6-2.8 1.1-5.21 2.4-7.01 3.2-1.3.2-2.4.2-3.4.3.1-.3.1-.5.1-.7 0-1.9-1.7-3.5-3.8-3.5-2.1 0-3.8 1.6-3.8 3.5 0 .6.2 1.2.5 1.7-2.11 2-2.51 2.1-5.51 3.5-1.5 0-3-.1-4.3-.4.2-1.4.3-2.8.1-4.5-1.2-2.3-2.9-4.1-3.5-6.9.7 0 .5-1 .8-1.5 2.2.4 4.8.5 6.7-.4-.1-.3-.2-.6-.4-.8.7-.4 1.2-1 1.5-1.9 1.2-1.3-.7-2.3-1.2-3.5-1.2-.2-2-.1-2.7.1-.2-.1-.4-.2-.7-.1 0 .2-.1.4-.1.5-1.1.6-1.9 1.6-3.4 1.8-1.1-3.3-2.8-6-6.31-6.9-1 1-2 2.1-1.7 4.5-.7 0-1.4-.2-1.6.2.2.1.3.2.4.4-1.9 1.2-2 4.1-3.3 5.9-2.1-2.2-4.6-3.9-8.11-4.6-.3-2.2-1-4-2.3-5.2-11.51 2.5-3.7-17-14.41-13.3-1.7 4.4-1.6 10.7-6.9 11.5-2.5-.5-3.21-2.9-5.21-4-4.9-.7-7.8 1.6-8.5 5.2h-.8c-.1.4-.1.7-.6.6v1.2h1.2c-.1 1.2.2 2.6.6 4-3 4.1-8.41 5.8-12.11 9.2-.5 2.8-1.8 4.7-4 5.8h-5.21c-.8 1.3-2.3 1.9-1.7 4.6.9 2 3.5 3.1 5.3 4.5.2.2.4.4.6.5 1 .9 1.5 2 1.1 3.6 2.7-.5 3.2 1 2.9 3.5-2.3 0-3.6 1-6.3.6-.4.7-.9 1.2-1.5 1.7-.3.2-.5.4-.8.6-1.4.8-3.2 1.2-5 1.7-1.6-2.1-2-5.4-3.2-7.9-2.8-.5-4.41-2.2-5.81-4-.1-2.5 1.9-3.8 1.1-6.9-6.4-1-6.4 4.5-10.4 5.8-5.71-.6-12.32-.4-14.42-4.6-.5-1.8-.6-4-2.9-4-5.1 1-3.8 8.5-10.9 7.5-1.2-1.6-.6-3.4-1.1-4.6-1.9.9-3.41 0-4.61-1.2 2.4-.6 1.1-4.8 0-5.2-2.4.1-.4 4.6-1.7 5.8-1.9-.2-2.3.9-3.5 1.2 0 1.9-1 2.9-.6 5.2-3.3 1.5-3.7 5.9-7.51 6.9-2 3.8-6.1 5.5-7.9 9.5h-8.31c-2.7-4.7-8.5-5.9-13.21-3.2a15 15 0 0 0-1.9 3.2H41.33c-1.1-.5-2.2-1-2.8-.3-.1.1-.2.2-.2.3h-7.1c-.7-.3-1.4-.6-2.21-.8-1.8-.4-3.1.8-4.6.3-.9-.8-.6-1.7-1.5-2.5-.8-.1-1.3.8-2.4-.1.4-1.9 2.2.1 2.8-1.2.1-.4.1-.7-.1-1.1-.6-.1-3-1.1-4.7-1.6-.4.5-.8 1.1-1.2 1.6 1.7 1.3 2.4 2.7 1.6 4.4-.7.7-2.1-.5-2.6.9-.5-.2-1.41 0-2.41.2H0V90h4.8c.7 1.7 1.5 3.4 2.3 4.8v2.9c-3.5 7.1-.2 10.2 0 19a40.3 40.3 0 0 1-3.16 6.6c-1 .1.6 3 0 3.5v6.1c.5-.1 2.56-.1 3.16 0 1.6-8.5 3.6-12.2 10.31-15.7 3.3-.7 5.9 1.5 8.1 0 .9-1.4 1.3-3.3 2.91-4 3.2.8 7.2.9 8.1 4-.9 2.3-2 3.8-1.2 6.3 5.2 2.3 8.41-1.7 10.91-4 5-1.1 9.4-4.3 13.81-1.7v5.2c-2.5 5.5-8 7.8-10.4 13.3.5 1.8 1.8 2.8 2.3 4.6 3.1.7 4.3.3 7.5 0 1.7-3.4.6-8.1-1.2-11 2.2-1.1 1.8-4.7 4-5.8 1.6 4 6.9 5.8 11.51 3.5 1.1-2.9-.3-4.6 0-8.1 5 .7 6.4-2.1 8.1-4.6-.2-3.3-3.3-3.6-3.5-6.9 3.6-3.6 11.11-3.4 15.51-6.3 3.1-3.8 6.2-7.6 9.11-11.7h2c.2 1.1 2.6 1.6 3 2.1.6-.9 3.1-.8 2.7-1.6-.7.2-1.2-.1-1.7-.5h6.61c.4.2 1.1.2 1.3 0H140c-.2.2-.4.4-.5.7.7 1.4 2.6 1.1 3.8 1.5.1-.5 1.4-1.2.6-1.5-.7.4-.3-.1-.1-.6h4.8c2.8 1.3 6.8 1.6 8.7 2 1-.8 2.41-.8 3.71-.8 0 .6-.1 1.3-.3 2 1.1-.6 1.8-1.3 2.2-2.2 0-.1.1-.1.2-.1.4-.3.3-.5 0-.7v-.1h3.9c.8.1 1.6.3 2.3.5-.8.1-1.8 0-1.9.3 3.7 1 6.21-.5 10.61-.5.7.1 3.3.6 1.9.8-1.7.7-5.1-.6-6.9.2 2.4.5 7.3.1 7.5 1.4 2.6-.2 4.6-.2 5 .5.5-.6 2-.8 4.41-.8 2.3.8 1.1 2.5-1.2 3.1-2.4.4-3.9-.5-4.4-.1 4.6.5 7.3 1.7 5.7 4 1.3.4 3.5.4 3.8 1.2-3.5 1.4-11.2 1.5-18.7 1.7-.81 2.3 8.7 3 12.5 1.5.1.3.2.5 1.3.4-.6-.8 2.4-.3 3.7-.5 1.5-.3 1.4-1.2 3.7-1.2h.5c-.1.4-.2.9.1 1.5.6 1.4-.5 3.8-.1 5.3 3.4 7 15.32 7.7 18.72.2 1.7-.6 2.7-1.4 5.2-1.7 6.2.1 13.41-.1 15.71 1.4.3.4.5.8 1 1.1-.3.4-.6.8-.9 1.3-2.5-.2-4.3.8-6.7.8-.9 1.8-1.7 3.6-2.9 4.7-2.6-1.1-4.1-.4-5.9-.2-.8 1.3-1.7 2.3-3.01 2.8-3.7 8.2 5.9 12.1 11.4 9.2 1-1.2 1.1-3.8 2.31-4.8 3.1 1.3 4.8.1 7.1-.1 1.5-.7 1.5-3.9 3.3-4 2.5-.7 5.41-.6 8.41-.4 6.6 2.5 12.41 4.7 18.92 5.1 4.2-2.3 8.6-4.1 13-6.1a4 4 0 0 0 2.6 1c2 0 3.6-1.5 3.6-3.3 0-.6-.2-1.1-.5-1.6.6-3.2 3.01-6 5.91-6.7 9.1 3.8 12.81-1.5 18.52-3.3 8.1 4.2 15.7-.7 17.9-10.6 3.71.8 9.51 1.6 10.82-3.4.1-.3.1-.5.1-.8h3.6c-.4.3-.9.5-1.3.8-2.6 7.9-5.2 14.8-2.5 20.7 1.3 1.9 3.3 3.7 5.6 5.2.1.9.5 1.7 1.2 2.3h-.1c-1.3 3.5-7.4 1.6-8.9 4.8 1.7 4.3 10-.3 13.2 1.8 1.9-1.2 4.5-1.9 8.7-1.9.4-2 3.51-1 3.11-3.9 0-.8-1-.7-1.1-1.3.2-.2.4-.3.6-.5.7 1.3 2 2.1 3.6 2.1h.2c2.3 0 4.1-1.6 4.1-3.7 0-1.9-1.5-3.5-3.5-3.7 1.2-2.3 2-4.9 2.3-7.5 1.4-.8 2.3-2.3 2.3-3.9 0-2.3-1.8-4.2-4.2-4.6a29.4 29.4 0 0 0-10.4-6.8h4.9c1.1 1.1 2.8 1.9 4.6 1.9h.2c1.9 0 3.5-.7 4.6-1.9h7.61c1 1.1 2.5 1.7 4.2 1.7 1.7 0 3.1-.7 4.2-1.7h8.41c1 .9 2.3 1.4 3.8 1.4s2.8-.5 3.8-1.4h9.22c.3.2.6.4 1 .6-.6.3-1.1.6-.8 1.2l2.1-.7a5.61 5.61 0 0 0 4.5-1.1h7.2c-.3 1.3-.2 2.8-1.3 4 3.3.9 2.4 5 2 8.2l.9-.3c.3 1.6 1.6 3 3.4 3.3.4 2.6.2 4.3 2.21 7.2 0 .2 0 .5-.1.7-.3-.1-.7-.2-1.1-.2-2 0-3.7 1.5-3.7 3.4 0 1.2.8 2.3 1.9 2.9-.4.7-.8 1.4-1.1 2.1 2.5-.4 4.7.9 5.3 3.6-.5 1.3-3.3 1.9-3.4 3.3 5.4-2 10.3-2.6 14 1.4-.5 1-1.7 1.8-1.7 2.9 4.01.4 8.21-.1 11.71 2-.9.6.6 1.9.1 2.6 1.3.9 3.2-.3 4.2 1.6 1.5 5.8-4.6 9.5-1.8 15.6 2.1-.1 1.5-1.3 3.2-2.5 1.71 1.5 3.51 2.8 5.61 2.8 3.4-5.1 8.7-4.7 11.71-2.6-.2-1 2.7-.8 3.8-1.5 4.7 3.9 10.51 3.8 15.11 8 5.8.9 13.01-3 20.32-7.5 0-5.4 3.6-7.8 7.8-7.7.1.5.2 1.1.8 1.1.7-.1 1.8-.2 2.9-.4 3.1 1.1 6.01 3.4 7.51 6.8-.7 3.9-.5 7.6 3.4 10.7 3.6.6 5.4-.6 9.21-2.5.7-3.9 1.2-7.8 2-11.7 4.3-3.1 3.8-7.7 4.6-11.8-1.8-2.4-3.9-5.3-6.8-7.4-6-.4-15.21.1-16.41-8-2.9-4.1-6.9-7.4-9-10.1-.2-2-1.9-4.5-3.21-6.8 2-4.4 10.1-5.1 12.2-7.9.5-.4.9-.9 1.2-1.5-.6-.1-1.2-.2-1.9-.3-.1-.9 0-1.9-.5-2.5-.7-.2-1.4-.6-2-1.1h15.02c.2 2 .5 4.1 1.1 6.3 4 5.8 9.1 7.6 15.2 6 5.21-3.5 7.21-7.9 8.91-12.3h26.82c-1.7 1.2-3.8 1.9-5 3.5-.5.7-1.7 4.3-1.8 5-.5 5.6 3.5 9.9 7.9 12.7.2.3.5.5.9.5.3.2.6.3.9.5 2.7-.9 7.2-.6 9.11-3.8.7-.5 1.3-1.1 1.8-1.7 2.7-.8 5.1-1.9 6.9-3.7-2.2 0-3.8.6-5.4 1.2 1.1-2.7.9-5.7.7-8.7-1.7-2.7-3.7-4.5-5.9-5.6h12.5c.2.6.7 1.1 1.5 1 .5 0 .6-.5.6-1h6.01c0 .4.1.9.3 1.6 1 .2 2.9-.5 2.3 1.2 2.9.2 4.5-2 6.2-2.7h2.81c.4.2.8.5 1.3 1 .8-.1 1.2-.6 1.8-1h2.3c.5 1.3 3.2.4 3.4 2.1-.4 2 .8 5.5-1.2 5.8-3.7.3-3.5-3.4-8.1-2.3 1.5 5-2.8 4.3-2.9 7.7h-.7c1.6 1.1-2.6 2.6.1 2.6-.2-.3-.3-.7.2-.8.4.8 1.1 1 1.8.9.3-1.2 0-1.5-.2-2.1 2 0 2.5-1.3 3.9-1.9.2.5 0 1.2.6 1.2.7-2 4-2.4 6.3-1.7-.6 2.6-5.3.9-5.8 3.5 1.3 1.1 2.8.8 4.6-1.2 1.8 2.3 2.3-.3 5.21 0 1.9 1.5 3.6 3.8 1.7 6.3 3.9.3 4.5 3.9 6.9 5.8 5.31.3 6.61 4.6 9.81 6.9-3.3 5.7 6.9 3.7 4 9.2 5.7 1.5 6.11-1.2 10.91-1.7.1-.7-.1-1.6.6-1.7 3.1-1.1 8.1-.4 12.11-.6 1.1 1.6 1 1.8.6 4 4.3-5 11.31 1.4 19.02 0 6.4-1.9 4.4-12.1 8.6-16.2 2.1-1 5.6-.5 8.6-.6 1.2-1.8 3.81-.9 7.51-1.2.7 2.5 3 4.8 5.8 3.5-4.2-6.4 2.1-9.8 5.81-13.3.6 1.5 2.3 2.6 4.2 2.6 2.5 0 4.5-1.8 4.5-4 0-.5-.1-.9-.3-1.3 1.9-1.3 5.81.2 8.71-.1.4-.8 1.1-1.3 1.8-1.7-1.1.8-1.7 1.9-1.7 3.2 0 2.4 2.1 4.3 4.8 4.3 1.1 0 2.1-.4 2.9-.9 1.2.5 2.3 1 3.51 1.5 2.5-4.8-.3-8.2-2.6-7.6-.4-.4-.8-.7-1.2-1 4.7.6 9.8 2.2 10.8-.8-1.9-2.5-6.1-2.7-8.6-4.6-5.8-1.5-8.2 2-12.71 1.2-1-2.3-3.1-3.5-4.9-5h8.7c1 1 2.4 1.7 4 1.7s3-.7 4-1.7h5.01c-.7.4-1.3.9-1.6 1.5-1.1 3.3 4.3 4.4 8.1 6.1.3.1.7.1 1.1.1-.2.1-.3.3-.5.4l.3.3c-2.1.6-3.7 2.3-3.7 4.4 0 2.6 2.3 4.6 5.1 4.6 2.81 0 5.11-2.1 5.11-4.6 0-2.3-1.9-4.2-4.4-4.5.1-.2.3-.3.4-.4-.1 0-.3 0-.4-.1 5.4.3 11.7.5 15-.6 3.21.1 3.71-.2 6.21 0 .4 1 4.2.9 5.6 1.7h4.51c-1.3 1-2.1 2.3-2.1 3.9 0 2.8 2.5 5.1 5.7 5.1s5.7-2.3 5.7-5.1c0-.7-.2-1.4-.5-2 3.1-.4 4.8-1.2 8.11-1.4-.9.9-1.4 2.1-1.4 3.4 0 3 2.7 5.4 6 5.4 1 0 2-.2 2.8-.6.2.4.3.8.3 1.2 1.5-.2 1.8-1.4 1.5-2.5.9-.9 1.4-2.1 1.4-3.4 0-2.1-1.4-3.9-3.4-4.8 3.2-.8 7.61-.4 12.01.1-1.8 1-3 2.7-3 4.7 0 3.1 2.8 5.6 6.3 5.6s6.31-2.5 6.31-5.6c0-1.5-.7-2.8-1.7-3.8.7.3 1.5.6 1.3 1.2 2.3-.1 4.1.2 5.8.5-.3.6-.5 1.4-.5 2.1 0 3.3 2.9 5.9 6.6 5.9h.2c3.61 0 6.61-2.6 6.61-5.9 0-3.3-2.9-5.9-6.6-5.9h-.2c-1.3 0-2.5.3-3.5.9-.2 0-.4.1-.7.1-.8-.3-1.6-.5-2.2-.8-5.3-.2-10.61-.3-13.11-1.5 2.7-.8 7.3-1.1 11.2-1.5 1 .6 3.4.2 5 .4 1 .2 1 .6 1.9.9.4.1.9.2 1.4.3-.1.1-.2.2-.2.4.71.1.81.8 1.71.6 0-.3-.1-.6-.2-.8 1.6.1 3.2.2 4.2.4.6.1 1.4.6 2.5.9 1 .3 2.9.5 3.8.7.4.2.2.6.6.7.4.1 1 .1 1.6.1-1.4 1-2.2 2.5-2.2 4.2 0 3.1 2.8 5.6 6.31 5.6 3.5 0 6.3-2.5 6.3-5.6 0-.6-.1-1.2-.3-1.7h.2c0-.3-.2-.6-.5-.8-1-1.8-3.1-3.1-5.6-3.1-.8 0-1.5.2-2.2.4-.1-.1-.3-.1-.4-.2-1.4-1.3-4.7-2.6-3.7-4.1 1.1-.1 2.1-.3 3.1-.5 1 .4 2 .7 3.2.7 2.8 0 5.2-1.4 6.4-3.5h5.51a7.2 7.2 0 0 0 6 3.1c2.4 0 4.6-1.2 5.8-2.9 2.41.9 5.61 1.5 9.31 1.9a6.71 6.71 0 0 0 4.4.4c5.41.4 11.62.5 18.12.5 3.1.7 11.5 2 13.1.2-1.6-1.4-7-1.4-11.9-1.6.9-.4 1.6-1 2.2-1.7h8.3c1.1 1.2 2.71 2 4.61 2 1.8 0 3.5-.8 4.5-2h9.31c.9 1 2.4 1.7 4 1.7s3-.7 4-1.7h10.01c.9.8 2.1 1.3 3.5 1.3s2.6-.5 3.5-1.3h11.52c.8.5 1.8.9 2.9.9 1.1 0 2.1-.3 2.9-.9h8.9c-1.7 1.3-3.9 2.4-3.9 5.1 6.2 1.3 13.51-1.9 18.92-2.1 4.4 3.9 8.3 8.4 14.7 9.6 1.4 3.8-1.1 7.6-1.9 11.3-1.8 3.8-7 5.2-6.6 10.8 2.2.2 2.6-1.1 4.5-1.2 1.6-1.8 1.3-4 3.2-6.3.4-.5 1.8-.3 2.2-.9.3-.4-.1-1.4.3-1.8.8-.8 2.41-1.4 3.21-2.2.9-.9 1.5-2.2 2-2.6 1.3-1.1 4.2-1.4 5.9-3.2.8-.8.5-2 1.4-2.5 1.3-.8 3.7 0 4.41-1.8 3.7.6 8 .6 10.8 2.5-1.8 3.4-6.6 4.5-11.4 5.7-1.9 3.1-6.8 7.1-4.3 10.5 4.4 1.4 6-3.3 10.6-3.3-.6-2.1.7-2.8 1.1-4.2 6.6-1.6 14.41-8.7 19.42-2.8.7 2.1-.6 2.6.1 4.7 2.2.1 2.4-1.3 1.9-3.2 6.4-1.8 7.9 3 13.7 2.1 2.51 1.6 2.51 4.5 3.31 7.1-.1-4.8-.3-9.6 1.1-13 1.6-.3 3.1-.5 4.6-.7 1-2.2 4.5-2.4 4.5-5.3 2.2-.9 2.71-.2 5.71-.8 3.9 2.7 10.6.8 15.71-.9.3 2.3.3 4.6-.9 6.9-3 2.8-6.2 5.3-9.2 8.1-8.81 1.3-11.61 8.7-17.82 12.7v4.6c4.8 1 8.3-4 12.71-5.2 4.3-5.3 12.21-7 19.62-9.2.3-.8.9-1.4 1.7-1.7 5.3.2 7.1.5 10.4 2.9.9-.7 2.2-1 3.5-1.4.3.2.6.4.9.5-1.5 4.7-5 7.4-9.5 9 .3 1.9-1.7 1.3-1.1 3.5 2.7 2.5 6.9.2 8.6-1.7 5.71-1 9.11-4.4 12.81-7.4.5.5.9 1 1.6 1.5v.7c.4.1.6 0 .8-.1.6.4 1.2.7 2 1.1.4-.5 1.1-.1 1.8.4 1.51.2 3.71-2.4 4.41-.7.4-.5.8-1.5 1.4-1.2a8 8 0 0 0 1.3-2.1c2.1 1.1 3.8 2.5 5.1 4.4-.2 1.1-2.6 0-1.7 2.3 1 1.1 2 .1 1.7-1.7 3.1-.2 3.51 2.3 5.81 2.9-.1 1.6-.4 3.4-.7 5.5 0 .1-.1.1-.1.2h.1c-.3 2.4-.6 5.2-.4 8.1 3 1.4 3.9 4.7 7.5 5.2 5.2.8 11.71-2.8 15.52-4.6.6-11.1-3.4-17.7-11.51-20.2.3-4 .9-2.2 0-5.8 1.7-1.7 1 1.5 2.9 1.2-.2-2-1.3-2.9-1.2-5.8 2.6-3.1 6.4 1.5 8.1-2.9-3-1-4.9.3-6.3-2.3 4.5-2.4 9.9-3.8 10.9-9.8 3.81-.9 6.71.1 9.51 1.4-.1 0-.2.1-.3.2.8 3.5 4.4 4.5 6.7 6.2.41-1 1.51-.1 2.11.8.8-.6 1.4-.5 1.7.3 2.3-.1 5.6-1 8.1-.3 2.2-1.1 2.4-.7 4.61-1.1 2.6-1.7 2.1-3.8 5.2-5.4-.8-1.4.2-2.5.7-3.6-1.1-1.1-2.6-1-4.3-.5-1.5-.4-3.6-1.1-4.5-.7-.4-1.4-1.9-.2-2.6-.9-.8-1.7-.1-3.1 1.6-4.4-.2-.2-.3-.4-.5-.6h5c-.2.5-.1 1.1.4 1.4.4-.3.8-.3 1.3.1.3-.5.4-1 .3-1.4h.1l.4.4c.1-.2.4-.3.6-.4h2.8c.1 0 .3.1.4.2 0 0 .1-.1.1-.2h25.52c.7.1 1.4.1 2.1 0h32.23c1.7 1.8 3.7 3.4 6.1 4.1 2.5.7 4.5-1.6 6.5-.8 1.2 1.3.8 3.1 2 4.5 1.2.1 1.9-1.6 3.4 0-.6 3.4-3.1-.1-4 2.3-.1.8-.1 1.5.1 2.1.9.2 4.2 1.9 6.51 2.6l1.8-3c-2.3-2.2-3.2-4.8-2-7.9 1-1.3 3 .8 3.7-1.8 1.2.6 4.2-.8 6.3-1.6 2 .7 3.91.9 5.41-.4h60.54v-212.2c1.3.1 2.7.6 3.7-.2 2.9-.9 5.71-3.2 6.11-5.8ZM807.16-239c.2.2.4.4.7.6-.3 0-.5 0-.7-.6ZM270.39 13.7c.06 0 .13-.03.2-.1.2 0 .5-.1.8-.1-.2.1-.3.2-.5.3-.2 0-.3-.1-.5-.1Zm849.08-247.3.2.2h-1.6c.5-.1.9-.1 1.4-.2Zm-872.8.2h-3.3c.4-.2.8-.4 1.2-.7.7.2 1.4.4 2.1.7Zm-91.56-3.7c-.5.7-.9 1.5-1.3 2.4-.7-.3-1.3-.8-1.8-1.3 1-.5 2-.8 3.1-1.1Zm1284.58 16.2c0-.4.7-.3 1.1-.4 0 .4-.6.3-1.1.4Zm3-.5c0 .3-.4.3-.7.4 0-.3.4-.3.7-.4Z"/><path d="M953.26 70.5c-.3-.4-.9-.3-1.1-.9-.4.2-.8.3-1.2.5.3 1.3 1.3.7 2.3.4m9.5 9.2c-.3-.4 0-.6.3-.9-.3-.6-1.3 0-2 .2.2 1.1.9.9 1.7.7m21.72 13.5c3.9-2.7 2.2-9.7-2.6-9.4-1 .8-1.9 1.8-3.7 2.3-2 4.5 1.5 9.2 6.3 7.1m10.8 6.3c-.3-.4-.9-.3-1.1-.9-.4.2-.8.3-1.2.5.3 1.4 1.3.7 2.3.4m-10.3-36.3c.4-.1.8-.3 1.2-.5-.3-1-1-.8-1.4-1.5-.8.1-1.3 2.6.2 2m19.91 50.9c.4-.2.8-.4 1.1-.7-.3-.4-.5-.7-.7-1.1-.4.3-.7.5-1.1.7.3.4.5.7.7 1.1m-42.73 7.2c-.4.3-.8.5-1.1.7.3 1 1 .6 1.5 1.3.8-.2 1-2.8-.4-2m-18.9-15.3c-.71-.6-.21-1 .4-1.3-1.11-.9-2.31-1.4-3.91-.2.5.7.4 1.2-.1 1.7 1 .7 2.1.9 3.6-.2m18.71 30.5c-.2-.4-.4-.8-.7-1.1-.4.3-.7.5-1.1.7.3.4.5.7.7 1.1.4-.3.7-.5 1.1-.7m-32.22 1.1c.6-.3 1.1-.7 1.7-1-.3-.6-.7-1.1-1-1.7-.6.3-1.1.7-1.7 1 .3.6.7 1.1 1 1.7m-17.21-1.4c.5-.3 1.1-.6 1.7-1-.2-2.1-3.5-.1-1.7 1m-83.26-1.8c-.4-1.4-1.5-.2-2.1-1-1.2 1 1.1 2.8 2.1 1m-49.83-34.2c.5-.3 1.1-.6 1.7-1-.2-2.1-3.5-.1-1.7 1m-7.9-10.9c-.6.3-1.2.6-1.7 1 .4 1.4 1.5.2 2.1 1 .6-.5-.1-1.3-.4-2m-3.11 5.3c-.7-.9-1.7-.7-2.9.2.3.6.7 1.1 1 1.7 1-.5.8-1.4 1.9-1.9m8.3 23.3c.3.6.7 1.1 1.1 1.7.3-.7.6-1.3 1.1-.7.5-.2.4-.5.2-.9-.3-.4-.5-.7-.7-1.1-.6.3-1.1.7-1.7 1m-14.3-12.9c-.4-.8-.8-1.5-1.2-2.2-1.2.5-1.2 1.3-1.8 1.9.7 1.5 1.7 1.3 3 .3M33.93 73.9c.2-2.1-1.5-2.1-1.6-4.1-4.41-.7-3.61 3.3-2.61 5.8 2.4.6 3-.9 4.2-1.7m-17.8-26.3H14.8v1.3h1.3v-1.3m2.7 9.3c0-.9-.2-2.5-.6-1.3-.1.9.1 2.5.6 1.3m133.3 65.9h2.9c-.1-1.8.6-4.4-1.7-4-.8 1-1.6 1.9-1.2 4m37.92-41.3c2.1-.8 1.6 1.4 3 1.3.7-.4.9-1.3 1-2.5-1.1-1.2-3.5-.3-4 1.2m19.41 3c-1.9 2.2 2.4 1.9 0 0M17.91 80.7c-1.3-1.6-.9-3-3-3 1 .8 1.7 3.3 3 3m171.12 12.1c-3.5 1.8-4.3 6.3-6.9 9 2.5-2.4 7.5-5.4 6.9-9m-141.1 29.8c.4-1.6-1.1-3.7-2.8-3.8-.5.8.8 5 2.8 3.8m31.62-49.4c.6 0 1.3 0 1.9.1v-1.9c-.7.1-1.8-.2-1.9.6.5.1 1.3 0 1.3.6-.5.1-1.3 0-1.3.6m-48.13 58.5c0-.7.3-1.2.5-1.7-.1-.2-.6-.4-1.1-.5-1-.7-2-1.3-2.9 0 .1.1.3.2.4.3 0 0-.1.1-.1.2.6.1.3.6 0 1.1.7.7 1.9.7 3.2.6m46.03-10.5v-1.9c-.7.1-1.8-.2-1.9.6 1 .1.5 1.7 1.9 1.3m17.92.6c-.7 1.7-1.7 3-1.2 6 3.4.6 3.8-5.5 1.2-6m7.9 3.9c-.1-1.9 1.5-2.8-1.3-3-1 .9-.9 3.4 1.3 3m29.12 4.1c2.8-.2 4-2.2 3.6-6-2.4.4-4.9 3.3-3.6 6m20.82 7.4c-.7.1-1-.9-1.3 0 0 .7 1.1.8 1.3 0m-8.91 1.7c1.2-.1 2.1-.4 2.6-1.3-1.5-.2-2.4.2-2.6 1.3m98.77-24.8c-2.6-1-4.7 1.9-3.7 2.6.6-1.5 4.1 0 3.7-2.6M19.7 127.6c10.91 1.3 14.31-7.1 11.21-15.8-4.1-2.3-4.6-5.8-11.2-4.7 0-2.5-1.7-2.7-3.4-1.8-.2 2.3 3 .9 3.4 2.4-1.2 1.2-3.4 1.5-4.51 2.9-.5 3.7-2.2 6-2.2 8.8 1.6 3.4 4.4 5.5 6.7 8.2m31.23-36.8c-1.9 1.9-.8 3.7-1.9 5.7 5.3 4 4 10.5 8 13.3-.5-5.3-4.4-10.3-2.5-15.7-1.2-1.1-1.8-3.4-3.6-3.3m283.4 46c4.5-.7 3.3-5.6-1.21-3.5.2 1.2-.2 2.9 1.2 3.5m474.33-21.9c1.3 1.5 4.8 1 5.9-1.3-.1-2.4-1.7-1.5-2.8-3.8-2.5 1.2-3.7 2.9-3.1 5.1m1.1-19.6c-2-3.3-7.7-.8-7.3 3 2.1 4.1 10.5 3 7.3-3m-31.02 16.1c.4.7.9 1.5 1.3 2.3 2.4-.8.6-4-1.3-2.3m28.22-22.5c-.2-.3-.3-.7.2-1-.2-.4-.4-.7-.6-1.1-.6.4-1.1.7-1.7 1 .4.6.7 1.1 1 1.7.3-.2.7-.4 1.1-.6m-11.91-1.4c-.4.2-.8.4-1.1.6-.1 1.9 2.8.6 2-.4-.4.2-.7.3-.9-.2m-40.93 30.3c1.1-.6 2.1-1.2 2.4-2-.5-1.1-1.1-1.7-1.7-2-1.9 1.6-1.4 2.2-.7 4m1.6-23.7c.4-.2.8-.4 1.1-.6-.2-.4-.4-.7-.6-1.1-.4.2-.7.4-1.1.6.2.4.4.7.6 1.1m-97.37 52.7c-.4-1.1-1.3-.8-1.8-1.9-2.7 1-.3 4.1 1.8 1.9m127.6-76.7c.2.4.4.8.6 1.1.6-.4 1.7-.8 1.4-1.5-.8.4-1.1-.7-1.8-.5.2.4.3.7-.2.9m30.41-20.5c.6-.3 1.1-.7 1.6-.9-.3-.6-.6-1.1-.9-1.7-.3.2-.7.4-1.1.6.4.7-.3 1.2.4 2m-34.82 13.6c.9-.4 1.2 1.7 1.9 1.5.7-.4 1.3-.8 1.9-1.2.4-1.1-.9-2.7-.6-3.8-1.9.8-3.7 1.1-3.2 3.5m-15.71 8.2c2.5 1.7 9.9-3.5 8.5-7-1.7-2.7-4.5-1.8-7.4-.1-.8 2.3-2 4.4-1.1 7.1M809.46 33c-.3-.7-.7-1.5-1.1-2.3-.6.5-1.3.9-1.9 1.3.6 1.9 1.6 2.3 3 1m-142.6 92.1c.4-1.2-.4-2.6-2.1-1.1.5 1 1.3 1.2 2.1 1.1m95.97-59.6c-.2-.4-.4-.7-.6-1.1-.4.2-.7.4-1.1.6.2.3.4.7.6 1.1.4-.2.7-.4 1.1-.6M794.45 39c.1 1.5 1.1 2.9 2.7 4.7 2.9-.6 4.8-2.7 4.1-5.3-2.1-.1-3.9-1.7-6.8.6m-106.08 66.4c.4-1.8-1.8-3.8-3.9-1.8.1 2 1.7 2.7 3.9 1.8m96.07-57.6c.2-1.8-2.9-2.7-5-1.4 1.1 2.1 4.1 3.3 5 1.4M665.16 97.1c-.8-.2-1.5-.9-2.7.4.6.5.8 2.8 1.7 2.1-.5-1 1.9-1.3 1-2.5m15.3 9.7c.51-.3 1.11-.6 1.71-.9-.5-.7-.9-1.4-1.3-2.1-1.6.6-1.4 1.7-.4 3m49.13-30.6c-.8.6-2 1.1-1 2 .3-.2.7-.4 1.1-.6-.3-.5 0-.9-.1-1.4m39.93-24.4c1.3-.7 2.6-1.3 3.6-1.2.6-1.1.6-2.4-.5-3.9-.9.5-1.8.9-2.7 1.3-.5 1.4.8 2.2.4 2.8-.4.3-1.1.6-.8 1m-82.26 45.5c-1.2 0-2.4-.9-2.9 1 .6 2.4 3.7.7 2.9-1m-47.33 28.5c2-1.1 1.8-2.9.2-4-.5.4-1.1.7-1.7 1.1-.4 1.4.8 1.9 1.5 2.9m148.9-85.4c-.5-1-.7-1.9-.2-2.6.6.7 1-.4.8-1.1-1.5-.2-3.8 2.2-2.6 4 .8-.3 1.2.3 2-.3M726.4 75.2c-.3-3.3-5-2.7-8-1.4 2.1 1.8 5.8 4.9 8 1.4m-28.42 15.6c2-.9 1.5-2.5 1-4-1 .9-1.4-.3-2.5.9-.3 1.1.6 2.8 1.5 3.1m49.64-75c-1.2.4-1.8 1.1-2.2 1.8 1.2 2.4 4.5.7 2.2-1.8M632.74 123.2c.2.4.4.7.6 1.1.6-.4 1.1-.7 1.7-1-.2-.3-.4-.7-.6-1.1-.6.4-1.1.7-1.7 1m161.6-95.3c-.8-.1-1.7.1-2.9 1 1.1 3.4 3.6 1 2.9-1m-145.2 79.9c-2.5 1.1-1.6 3.1-1.5 5 2.9-1.3 3.6-3.6 1.5-5m59.25-31.3a11 11 0 0 1 .1-4.8c-2.3 0-3.9-2.4-7 .6 0 2.3.4 3.6 2.3 5.5 1.4-.1 3.2-1.4 4.6-1.3m80.05 29.2c2 .8 4.2 3.9 6 .5-1.3-2.8-5.6-3.5-6-.5m-3.9-74.8c.4-.4 1.1-.7.8-1.2-.4.4-1.1.6-.8 1.2m-89.76 48.9c3.6-1.4.5-6-2.4-3.1.2 1.7 1.1 2.1 2.4 3.1m20.41-13.4c-.4.2-.8.4-1.1.6.2.3.4.7.6 1.1.4-.2.7-.4 1.1-.6-.2-.4-.4-.7-.6-1.1m-30.12 17.4c.5-.3.9-.6 1.3-.9-.5-1.3-.2-2.7-1.5-3.1-.9.4-.7 1.2-1.5 1.7.5 1.3 1 1.9 1.7 2.3m84.96-53.7c-1.1.6-.4 1.6.4 2.7 1.2-.8 1.7.2 3-.8-.9-1.4-1.7-3-3.4-1.9m26.32-13.6c-.4-.6-.7-1.2-.9-1.7-.9.9-2.3 1.6-1.3 3 .7-.5 1.4-.9 2.2-1.3M687.47 75.8c1-.3 1.5 1.5 2.9-.2 0-2.4-3.4-1.2-2.9.2m24.62-14c1.4-1.6 2.7-3.1 3.4-4.8.1.2.2.3.3.5 1.3-2.8 3.3-5.5-.4-8.7-.7.7-1.4 1.3-2.1 1.9.4 1.7.6 3.4 1.5 5.1-1.6.8-4 1-4.3 3 2 0 2.8 1.1 1.6 3m74.35-41.9c-.5-2.1-1.8-1.3-3-1.3.6 2.1 1.9 1.3 3 1.3m-30.22 15.8c1.1.3 2.8-.9 4.4-1.7-1.2-1.6-.5-2.7-1.3-4.2-.9.7-1.4-.1-2.1-.1 1.5 1.7-3 1.8-2.7 3.2.6 1 1.1 1.9 1.7 2.8m11.2-8.4c-.2-.9.2-1.5-.6-2.5-1.3.8-2.9 1.5-2.3 3 1.3-1.4 1.7.9 2.9-.5m-22 43.4c-.4-1-.9-1.7-1.6-1.9-1.4 1-2 2.2-.6 4a3.8 3.8 0 0 0 2.2-2.1m26.01-48.5c-.5-.8-.9-1.6-1.5-2.4-1.4 1.1-1.1 2.7-2.5 3.9 1.1.3 2.6-.8 4-1.5m-174.12 88.7c-1.5-2.3-2.8-5.8-6-6.1 1.7 1.9-.5 2.6-1 3.8-.5-.6-1.1-.6-1.5-1.7-4.5 3.6 2 8.7 5.4 10.9-.2-1.1-.9-2.2-.4-3 1.3-.7 1.9.9 3.2.1.5-1.2-2.8-4.8.3-4m137.1-83.3c.7 2.3 1.4 2.5 1.5 4 1 .4 4.4 0 4.5-1.9-.7-1.1-3-4.5-6-2.1m-6.7 11.2c-1.9 1.1-1.4 2.9 0 5 2.6-.9 2-4.2 0-5m-69.96 76.7c-.2-.4-.4-.7-.6-1.1-.4.2-.7.4-1.1.6.2.3.4.7.6 1.1.3-.2.7-.4 1.1-.6m-4.1-2.2c-.3.2-.7.3-.8-.2.3-.2.6-.5.2-.9-2.9.4 1.3 3.8.6 1.1m-58.94-11.5c.5-.3 1-.6 1.6-.8.5-1.7-1.9-6.9-4.8-6.1-.6 1.8.6 5.6 3.2 6.9m20.31-11c-.2.2-.5.5-.5.9 2.7-.2 3.3-.1 4.8-2 0-1.1-1.6-.4-2.3-.7.1 1.1-.5 1.3-1.1 1.5.1-1-.5-2.1-1.5-1.6-.2.8 0 1.6.6 1.9m40.03 19.5c.4.7.9 1.2 1.7.5-.4-.6-.8-1.7-1.5-1.4.2.4.3.7-.2.9m-83.76 4.1c-.8-1.4-1.7-2.8-3-2.6-.3 1.8 1.5 3.8 3 2.6m70.65-2.5c.8-.3 1.2.3 2-.4.1-1.9-2.8-.6-2 .4m-73.55-3.1c.8.9 1.5 2.3 3 1.3-.5-.8-.4-1.4-.4-2-.9.2-1.6-.2-2.6.7M724.6 95.3c.8 2.5 3.9.7 2.2-1.3-1.6-.3-.6.5-2.2 1.3m-137.2-1.8c-.3 1.5 1.4 3.2 3 1.5-.7-2-1.6-3.1-3-1.5m58.65 13.3c.1-2-2.8-1.7-2.3-.2.9-.4 1.2 1.2 2.3.2m22.21-57.2c-.3-.5-.7-1.1-1-1.7-.6.4-1.1.7-1.7 1 .4.6.7 1.1 1 1.7.6-.4 1.1-.7 1.7-1m-14.6 49.3c-1.31-3.6-2.61 1.1 0 0m-3.41 1c-.3-.6-.7-1.1-.9-1.7-.6.4-1.1.7-1.7 1 .5 1.3 1.4 1.5 2.6.7m-38.93-20.7c-.4-.8-.9-1.6-1.4-2.4-1.7.6-2 1.6-.9 3 .8-.2 1.4.2 2.3-.6m24.72-20.9c.4.7.9 1.2 1.7.5-.4-.6-.8-1.7-1.5-1.4.2.4.3.7-.2.9m28.32 26.4c-2.3-5.6-5.7-7.6-10.5-4.5-1.91 1.8-.81 4.4-1.51 6.6 3.5 4.1 11.4 4.3 12-2.1M558.4 96c.7-2.9-3-.6 0 0"/><path d="M553.38 96.7c6.2.5 4.3-7.7-.5-5.6-.3 1.3-2.3 2.2-1.2 3.9.4 1 1.2.8 1.7 1.7m28.52-17.9c.5-.3 1-.6 1.4-.9-.5-1-1.1-2.1-1.6-3.1-2.5.6-1.2 3.5.2 4m24.92-19.9c-.3-.6-.6-1.2-1-1.7-2.1.1-.2 3.5 1 1.7m-10.1-1.4c-.3-.9.2-1.5-.7-2.6-2.11 0-.2 3.3.7 2.6m47.62 21.3c-.4-.8-.4-1.4-.4-2-2.1.7-2 1.1-4.6 2 1.9 2.5 2.5-.6 5 0m-20-48.2c-1.51-3-7.21-2.1-8.01 1.1 2.1 1.2 6.1 2 8-1.1m8.7-11.7c5.81 4 6.01-7.4-.7-3.2.3 1.1-.4 1.9.7 3.2M522.27 80.1c-.4-.8-.4-1.4-.4-2-1 .7-1.6.1-2.6.7.9.9 1.6 2.3 3 1.3m96.47 20.5c.9-.4 1.3 1.2 2.3.2 0-2.1-2.9-1.7-2.3-.2m-122.79-2.8c.5-.3.9-.6 1.3-.8-.1-2.1-1.2-2.8-3-1.5.5 1.3 1 1.9 1.7 2.3m321.02-77c2-.5-.4-2.2 2.2-2.5-.4-.5-.7-1-1-1.5-2.2.9-1 2.6-1.2 4m-40.62 21.8c.6-2.4-.7-3.1-3.1-3.8-2.5 1.3-1.9 3.3-2.8 5 1.5-2.3 3.9-1.4 5.9-1.2m21.51-18.9c-.3-.6.5-1 1.4-1.3-.6-1.3-1.3-1.9-2.4-1.5.3.7-.1 3.3 1 2.8m-11.4 5.5c-1.2-3.4-4.21 1.5-2.3 1.3-.61-1.6 1.4.2 2.3-1.3m-100.5 42.5c.7.1 1.5 0 2.4-.9-.1-2.1-1.3-1.9-2.8-2.1.3 1.1-.8 1.7.4 3M562.3 136.1c-1.1.5-1.8-.9-3-.4.4 1.6 3.4 1.4 3 .4M743.7 31.8c.9-.4 1.5-.9 1.8-1.4-1.3-1-5.4-2.6-5-.5 1.4-.5 2.5.1 3.2 1.9m-95.96 85.4c.2.3.4.7.6 1.2.9-.8 1.9 0 1.7-1-1 .5-1.2-1.4-2.1-1.1.2.4.3.7-.2.9m-1.5 1.1c-1.1.4-1.5-1.9-2.9-.4.2.4.4.7.6 1.1.4.4 3 .1 2.3-.7m69.54-25.2c1.4.2 3.2.6 1.9-1.8-1 1.5-1.9.7-1.9 1.8m15.61-41.2c1.7.1.9 2.9 1.9 3.8.6 1.1 1.3 2.2 1.9 3.3 1.4 1.7 3.3 2.1 5.01 2.8 2.4-.3 4.8-.6 7.2-1.1 2.4-1.1 3.5-2.6 3.6-4.3 1.8-1.3.8-3.3 1.7-4.8-.1-.6-1.3-1.4-.6-1.7 1.1.5 2.51-.4 2.31-1.6-1.6-.3-2.2-.7-3.2.9-.3-3-4.7-5.1-7.1-6.4-1.9.5-3.91 1.2-5.71 1.5-.8.4-1.7.9-2.5 1.3-2.2 1.9-3.4 4.1-4.5 6.3Zm14.01 6.3c.2.3-.2.4-.4.6-.2-.3.2-.5.4-.6ZM580.1 21.4c1-1.1-1.3-2.4-1.8-2.4-.9.5-.5 1.1-1 1.7.8 1.9 1.9-.1 2.8.7m20.51 24c1.3 1.1 2.6 1.2 4.2.4.2.7.9 1.2 1.7.8-.3-.8.1-1.4-.7-2.4-.4.2-.7.4-.9.7 0-.4.2-.8.7-1.2-1.3-2-2.7-2.3-4.1-2.9-2.1 1.4-.6 3.1-.9 4.6M590.31 68c-.5-.7-1-1.4-1.6-1.9-.5.4-.9.8-1.4 1.2 1-.3 1.8 2.5 3 .7m89.06-45c-.9-1.1-1.8-2.2-2.8-3.2-.7 2.2.5 4.6 2 7 2.2-2-1.2-1.8.8-3.8m-.2-4c-2.2-1.5 1.1 2.5 0 0M568.19 137.7c-2.7 1.6 5 1.2.4.5l-.4-.5m73.15-49.9c.4-2.4-.9-4.3-2.9-5 0 2.4 1.4 3 2.9 5m35.03-34.6c.3.5.6.3.9.1a7 7 0 0 0 1-.8l-1.2-1.5-1.5 1.2c.6.2 1.3.4.8 1m27.12-9.4c-1.6 1.1-.2 2.6 1 4 1.5-1.2-.2-2.6-1-4m-37.63 36.7c.5-.8-.7-1.6-1.2-2.4-2.1 1 .5 2.3 1.2 2.4m-28.52 28.4c-.8-1.5-1.8-.6-2.7-2.2-.8.6-1.5 1.2-2.3 1.8.5.1 2.9 1.2 1.9 2.1 1.1.5 3-.4 3.1-1.7m2.1-3c.5.4 1.1.5 2-.3-.5-2.6-2-.6-3-1 .1.1.2.3.3.4-1.2-.4 1.4 2.3.7.9m91.26-61.1c.7-1.3 1.1-2.6-.1-4-1.4.8-.4 1.8-2.1 2.5.8.1 1.5.6 2.2 1.5m-40.02 32c-2.3 1.1.1 2.6 1.4 4 0-1.3.5-2.6-1.4-4m9.9 10.7c-2.4 3.1 3.8.8 0 0m84.86-63.9c-.5-.5-.9-1-1.2-1.5-1 .7-.6 1.5-1.6 2.2.9.4 1.8 0 2.8-.7m-99.77 89c2.1-1-.9-2.8-1.5-2.9-2.1.5.8 3.7 1.5 2.9m-18.41 13.2c-.9-.1-1.9.7-2.9 1.7 1 1.8 2.2 2.1 3.3 2.3 1.4-1.2.6-2.6-.4-4m68.15-52.2c1.4 2.8 4.5-.2 2.2-1.8-.7.6-1.5 1.2-2.2 1.8m-69.25 57.2s-.1 0-.2.1c-.2.2-.4.3-.6.5.9 1.6 2 1 2.9 2.4.7-.5 1.4-1.1 2.1-1.6-1-1-1.9-2.3-2.9-2.4l-1.3 1m46.13-31c.7-.6 1.4-1.2 2.2-1.7-.4-.5-.7-.9-1.1-1.3-1.5-.1-3 1.7-1.1 3m-43.23 36.3c-1.2 1.5.5 1.7 1.6 2.7.3-1 .9-1.9-.2-3-.5.5-1 .6-1.4.3m41.23-29.5c2.3-1.2-.1-4-1.7-2l1.7 2M678.17 138c-2.2-1.5 1.1 2.5 0 0M742 92.2c.3.3.6.6.8 1a7 7 0 0 0 1-.8 7 7 0 0 0-.8-1 7 7 0 0 0-1 .8m9.5 12.6c2.31-2.2 4.41-4.3 4.41-6.6.4-.1.7-.3.6-.9-.3.1-.5 0-.7-.1-.1-.5-.3-.9-.6-1.4-3.7 1.2-9 3.6-9.7 8 1.8 1.8 4.2-1.7 6 1m72.25-65.1c-3.1-.6-.4 2.9 0 0m-38.23 33.5c.9 1.1 1.9.3 2.9-.1.1-.6-.7-1.3-.2-1.9-1.3-1.2-3.1.9-2.7 2m-7.9 8.6c1.9-.8-.1-1.9.8-2.8-.8-1-2 1.1-2.9 1.4.7.1 1.4.6 2.1 1.4m-7.6 10.4c.3.3.6.6.8 1a7 7 0 0 0 1-.8 7 7 0 0 0-.8-1 7 7 0 0 0-1 .8m0 3.6c-1.51-.5-3.31 2-1.21 2.9 3-.8-1-2.1 1.2-2.9m-2.1 4.1c-.6-.5-1.3.3-1.9.7.6.6 1.3-.3 1.9-.7m-1.2 2.9c-1.8.8-2.4 1.8-2.2 2.9 1.4.6 4.2-1.9 2.2-2.9M854.39 41c-.7-.7-1.3-1.4-.7-1.9-.6-.6-1.2.3-1.9.7.8 1.5.7 2.7 2.6 1.2m-86.16 76.8c-.9.7-1.8 1.5-2.7 2.2 1 1.2 2 2.7 3.1 2.8 1.3-.7.3-1.6 1.9-2.3-.7-1.8-.8-1.1-2.3-2.7m93.56-72.6c-.1 0-.4-.5-.4-.5-2.7 1.6 5 1.2.4.5m37.63-29.7c-1.1-1.2.1-2.1 1.1-3-2.3-2.5-7.4 3-8.5 3.2-2.2 3.5-7.91 6.7-11.51 10.1 5.2.6 11.2-8.5 16.3-8.1.9-1.5 1-1.5 2.61-2.2m-65.95 68.9c-.5-.5-1-1.1-1.7-1.6-1.7.9-1.8 1.9-.3 3 .7-.5 1.4-.9 2-1.4m35.03-10.6c-.8-1-.3-1.9-1.7-3.1-4.2 2.3-10.3 7.8-13.31 11.6 5.3 2.1 9.9-3.9 15-8.5m-54.83 61.1c-.7.7-1.4 1.4-2.2 2.1.8 1.8 4.7-.3 2.2-2.1m82.86-58.7c.8-.7 1.7-1.4 2.5-2.2 1-1.5 1.7 1 2.7-.1 1-.9 1.1-2 .3-3.1-1.8 1.5-3.6 3.1-5.4 4.6-1.3.5-1.5 2.3-.1.8m-44.73 51.9c.3 2.3 2.6 4.1 5.3 4.1 3 0 5.4-2.1 5.4-4.7s-2.4-4.7-5.4-4.7c-2.4 0-4.4 1.3-5.1 3.2-2.2 0-4.6 2.5-6.9 4.1-.7.1-1.4.1-2.1.2.7-.8 1.1-1.7 1.1-2.8 0-2.5-2.3-4.5-5.21-4.5-2.9 0-5.2 2-5.2 4.5 0 1.5.8 2.8 2.1 3.6h-.1c-2 .5-3.4 1.8-.4 2.1-.2 0-.5.3-.8.4.4.4.9-.1 1.3-.3-.07-.07-.14-.1-.2-.1h.9c.9.8 2 0 3.1-.8-.3-.1-.7-.2-1-.4h.4c.4 0 .8 0 1.2-.1l-.2.2c3.5-.8 8.5-1.1 11.8-4m39.13-12.4c.1 0 .1-.1.2-.3l-.1-.1c.1-.2 0-.4-.1-.7.5.2 1 .3 1.5.3 2.2 0 4.1-1.6 4.1-3.6s-1.9-3.6-4.1-3.6c-2.2 0-4.1 1.6-4.1 3.6 0 .3 0 .5.1.8-1.8-.4-3.7.1-4.8 2.6 1 .8 0 1.5 1.3 2.4 2.1 1.8 4.7-.6 6-1.4m-12.4 17.2c.5 2.2 2.2 1.5 3.7 2.9 1-1.2 2.2-2.3 2.3-3.6-1.9-.7-3.9-.6-6 .7m54.03-11.8c-.7-.6-1.4-.7-2.1-1.1-.8.5-.4 1.1-.9 1.7 1.4 1.5 2.3 1.2 3-.6m39.03-63.6c-1.1-2-2.6.9-4 .5-.4 2.9 2.8 1.6 4-.5m-4.4-19.7c2.2-1.8 1.8-2.9-.2-4-1 .9-2.3 1.8-2.3 2.8.8.6 1.7.2 2.5 1.2m25.41 94.2c1 .3 1.9 1.6 3-.2-.5-.7-1-1.3-1.5-2-1.2.7-1 1.5-1.5 2.2m25.72-2.4c.4-.4.9-.8 1.4-1.3l-1.2-1.5c-.6.6-1.2 1.1-1.8 1.7.5.2 1.1.4 1.6 1.1m-40.73-34.1c1 1.7 2 .6 3-.8-.3-.4-.7.2-1.1.4-.4-.3-.2-.6 0-.9-.6-.5-1.3.7-1.9 1.3m55.04 4c-1.2-2.3-2.7.7-4-1.7-6.8 4.6-13.31 2.9-20.01 6.9 7.6 1 13.6-5.3 20.61-2.3 1.7-1.6 2.6-1 3.4-2.9m28.92-7.8c-.4-.5-.9-1-1.3-1.4-.4.4-.9.9-1.4 1.3.9 0 1.7 1.6 2.7.1m-3.4 32.6c-.5.7.7 1.5 1.3 2.4.9-.6.4-1.2 1-1.8-.3-.4-.6-.7-.9-1-.5.6-1 .7-1.4.4m37.53-.5c-1.3.5-2.6-1.3-4 .3 1.3 1.3 2.6 1.7 4-.3m-333.03-13.9c-1.3.8-2 1.6-2.3 2.4-.5-1.7-2.4-3-4.3-1.2-.2 1.7 1.5 4 3.3 3.4-.7 2-1.2 4-4.3 5.7-2.11-.3-4.31-.2-6.21.3.2.6-.5.9-1.2 1.3-.1.8-.2 1.5-.1 2.1-1.1.6-1.9 1.8-1.9 3.1 0 2.1 1.9 3.7 4.1 3.7.9 0 1.7-.3 2.4-.8v.2c.1-.1.2-.3.3-.4 4.4 1.7 9.9.3 8.4-4.9-.5-1.7-1.6-2.8-3-3.6 1.2-4.9 4.6-9.6 6.7-14.4-1.1-.6-3 2.1-1.9 3.1"/><path d="M776.14 105.9c-.7.3-1.6 1.9-2.3 1.5.1-.1.3-.2.4-.4l-2.1-3.3c-.8 1.1-5.31 0-6.61 2.4-.3 1 .8 2.3 1.6 3.6 2.3-.6 4.5-.3 6.4-2 .2.1.5.1.7.4.4.4-.2.7-.5 1.1 1.3.5 3.6-2.3 2.4-3.3m11.61 2.7c-.6-.5-1.5-.8-2.5-.9-2.1 0-3.8 1.5-3.8 3.5 0 .8.2 1.5.7 2.1-1.4 1.4-3.2 2.7-4.7 3.4 1.5.2 1.7-1.3 2.3 1 1.5-.7 3-1.8 4.5-3.1.3 0 .7.1 1 .1 2.1 0 3.8-1.5 3.8-3.5 0-.3 0-.5-.1-.8l1.5-1.2c-.7-1.8-1.7-1.4-2.7-.6m-35.72-40.8c.3-1.5 2-3.2 3.1-4.7.3.4.7.6 1.3.6.2-.7-.1-1.4-.6-1.7.6-1.3.6-2.4-1.1-3.2-.8.8-1.7 1.5-2.5 2.2 1.7 1-2 4.5-.2 6.8m19.41 11.7c3.3 1.5 2.7-3.5 5.5-4.6 1-.6.3 1.7 1.9.6 2.3-1.4 1.8-3 .4-4.7-4 1.3-4.4 6.1-7.8 8.7m134.1-66.3c.7 6.3 7.8 11.4 12.5 12.5 4.1.2 9.31-3 12.61-7.7-.4-.3-.8 0-1.2-.5 2.1-1.8 1.1-3.8 2.1-5.7-2-1.6-1.3-5.6-3.8-8.4-3-3.3-8.1-5-12.5-2.4-.6.4-1.11-.5-1.61-1-3.2 1.9-4.4 3.4-7.1 6.1.7 2.5.8 4.9-1 7.1Zm-43.04 91.2c1.3-1.1 2.7-2.2 4.1-3.4-1.1-2.2-2.5-.9-3.6-2.3-6.5 4-12.8 4.9-19.4 9.7 6 1.7 12.7-4.1 18.9-4M593.41 73.3c1.4.6 2.1 2.1 4.6 1.1.6-2.7.9-6.8-3.5-5.4.2 1.9-1.5 2.2-1.1 4.3m17.21-28.5c-.1-.4-.1-.8-.2-1.3-.4.1-.9.1-1.3.2.1.4.1.9.2 1.3.4-.1.9-.1 1.3-.2m-3.5 7.8c-.7-1.1-.7.5-.5 1.4.7 1.1.7-.5.5-1.4M438.8 104.8c1.7-.2.9-2.2 3.4-1.7-.8-1.3-3.8-1.8-5-.5.3 1.1.7 1.9 1.6 2.2m-17.8 4.3c-.1.4-.2.7-.1 1.1 0 1.9 1.6 3.5 3.7 3.5s3.7-1.6 3.7-3.5-1.6-3.5-3.7-3.5c-1.4 0-2.5.7-3.2 1.7-.1-.2-.3-.4-.6-.7-1.1 1.2-.3 1.6.2 1.4m192.33-35.3c-2.4.1-1.6 1.8-2.8 4 1.5.2 1.8-2.9 2.8-4m-26.72 49.8c2.4 1.1 3.2-4 2.5-4.9-1.9.5-3.3 3.2-2.5 4.9M547.88 79c-.1-.6-.8-.4-1.4-.4-.1-.6.7-.6 1.2-.8-.2-.8-1.2-.4-2-.4l.3 1.9 1.9-.3m-82.96 45.2c-.4.1-.8.1-1.3.2l.3 1.9 1.9-.3c-.1-.4-.1-.9-.2-1.3-.5.2-.6-.1-.7-.5M438.2 136c-.5-2.2-3-1.7-5-1.8.6 2.1 2.3 2.7 5 1.8m138.2-23.2c3.5-3.4 1.4-9.8 6-14.6-1.4-1.8-.5-3.7-2.6-5.4-1.8.2-2 2.5-3.1 3.9 2.6 5.1-.5 10.8-.3 16.1m678.87 8.1c.7 0 .7-1.2-.1-1.3.1.7-.9 1.1.1 1.3m-46.34-15.6c1.5 1.1 3.1 2.2 5.3 2.4 1.7-1.6 3.41-3.6 1.9-6.6-2-.1-3.7-.6-6.3-.2.9 2.5-1.8 1.9-.9 4.4m-2 19.6c0-.5 0-.9-.1-1.3-.4.1-.9.1-1.3.1.1.4.1.9.1 1.3.4-.1.9-.1 1.3-.1m-10.2-41.3c.9-4-4.9-3.6-3.8.2 1.3-.1 2.6-.1 3.8-.2m-1 43c.5 1.2 2.3 1.5 3 .4 0-.6-.1-1.3-.1-1.9-1.6.1-2.7-1.2-2.9 1.5m-7.81 9.2c1 2.4-.4 3.5 2.2 3.9-.6-1.8.5-2.1.4-3.5-.9-.1-1.3-.7-2.6-.4m1.3-15.3c-.7.1-1.3.1-1.9.1-.9 1.9 3 1.7 1.9-.1m-13-36.2c-1.71-.3-2.31.3-1.81 2 1.7.4 1.1-1.4 1.8-2m.4 44.9c1.6-.2 0-2.2-.8-1.9 0 .9-.7 1-.5 2 .4-.1.9-.1 1.3-.1m-2.3 11.4c-.9 1.7 2.3 1.8 2 .5-.4 0-.8 0-.7-.6-.4.1-.9.1-1.3.1"/><path d="M1174.71 139.7c-.8 0-1.3-.3-1.9-.5.3 1.3-.7 1.3-1.1 2 1.5.3 2.9.8 3-1.5m-2.7 10c1 1 2.9.6 2.5-1.4-1.2.1-2.1.5-2.5 1.4m-1.8-52.2c-.7.1-1.3.1-1.9.1-.9 1.9 2.9 1.7 1.9-.1m-.9 48.5c1-.2 2.2-.1 1.9-1.4-.4.1-.9.1-1.3.1 0 .6-.5.8-.6 1.3m-3.3-34c0-.8 1.1-.6 1.2-1.4-1.3-.6-3 1.2-1.2 1.4m2.9 31.2c-.1-1 0-2.2-1.4-1.9 0 1.1.6 1.7 1.4 1.9m-1.8-7.6c-.4 0-.8 0-1.3.1 0 .6-.5.8-.6 1.3 1-.1 2.3 0 1.9-1.4m-.6 3.7c-.8.1-1.7.1-2.6.1-.3 2.6 2.8 2 2.6-.1m-2.2-8.1c-.1-.5-.1-.9 0-1.3-.4 0-.8 0-.7-.6-.4.1-.9.1-1.3.1 0 .6.1 1.3.1 1.9.6 0 1.3-.1 1.9-.1m.6 15c0-.5 0-.9-.1-1.3-.6 0-.8-.5-1.3-.6.1 1 0 2.3 1.4 1.9m-5.21-43.4c-.9-3.9-5-4.4-8-6 1.4 3.4 4 5.5 8 6m-1.5 39.5c0 1.4 0 2.8.8 3.4 1.6.4 1.4-.9 2.8-.7 0-.8-.1-1.5-.1-2.3-2.4-1.4-3.2-1.9-5.9-2-.3 2.7 2.2.7 2.4 1.6m-1-36.7c-.5 0-.9 0-1.3.1 0 .6-.5.8-.6 1.3 1-.1 2.3 0 1.9-1.4m1 27.9c-.7.1-1.3.1-1.9.1-.9 1.9 2.9 1.7 1.9-.1"/><path d="M1157.9 142.6c-.5 0-.9 0-1.3.1.1.4.1.9.1 1.3.4-.1.9-.1 1.3-.1-.1-.4-.1-.9-.1-1.3m-.9 5.8c0-1.1 1.7-.6 1.2-2-1.9-.9-2.8 1.8-1.2 2m-1.1-10c.2.1-2 1.3-1.9 1.4 1.1.9 3.7-1.2 1.9-1.4m-1.7-2.5c-.4 0-.8-.1-.6-.6-.4.1-.9.1-1.3.1 0 .6.1 1.3.1 1.9.6 0 1.3-.1 1.9-.1-.1-.4-.1-.9-.1-1.3m-3.8 8.9c.1-.9.9-1.2 2.4-1.1 0-.5-.1-1-.1-1.5-1.1.1-1.9 0-2.5-.4 1 1.4-1.5 2.6.2 3m-6.11-.7c2.1-2.8-2.2-1.5 0 0m-2-16.9c0-.6-.1-1.3-.1-1.9-.6 0-1.3.1-1.9.1-.4 1.7 1.4 1.1 2 1.8m-1.1 16.4c-.1-1.8-1.2-1.3-.1-2.6-2.6-.3-2 2.8.1 2.6m-2.3-11.7c0-.5 0-.9-.1-1.3-.4.1-.9.1-1.3.1.1.4.1.9.1 1.3.4-.1.9-.1 1.3-.1m-4-5c0-.5 0-.9-.1-1.3-.4.1-.9.1-1.3.1.1.4.1.9.1 1.3.4-.1.9-.1 1.3-.1m-3.91-3.7c-.1-.9 1.1-.7 1.2-1.4-.8-1.5-3 .9-1.2 1.4m-.3 22.9c.9-.4 3.2.6 3-.8-1-1-2.9-1.7-3 .8m0-9.1c0-1.5-1-1.1-.1-2.3-1.6.4-3.3.8-2.8 3 1.4.1 2.2-.2 2.9-.7m-1 4.3c0-.7 0-1.5-.2-2.4-1.7-.3-1.1-.3-2.8.2-.2 2.8 1.4 3 3 2.2m-3.2-51.9c0-.6-.1-1.2 0-2-.9.1-1.5-.2-2-.5-1 1.4.1.8.1 2.6.6 0 1.3-.1 1.9-.1"/><path d="M1123.67 140.8c1.6 0 3-.1 3-1.4-1.6.3.4-3.5-2-2.4-1.3.3.2 3.3-1 3.8m.8-18.2c-3.3 1.8 2.3 1.6 0 0m-1.7 10.2c1.4.1 1.8 1.2 2.7 1.8.7-2-2-3.6-2.7-1.8m.1 18.4c0-.4-.1-.7-.7-.6-.9 2.7 4 .5 1.3-.1 0 .4 0 .8-.6.7m-.3-13c-1.1-.2-.7-2-2.6-1.2 0 .9.1 1.7.1 2.6 1.2-.1 2.1-.5 2.5-1.4m-8.9-29.9c.6.1.9.7 1.1 1.2.9-.4 2.1-.4 1.9-2.1-1.1-.2-2.8-1.3-3 .9m1-6.5c0-.6 0-1.1-.2-1.6-.5 0-1.1.1-1.6.1-.1-.6 0-1.4-.6-1.5-.1.8-1.1.4-1.6.1.2 2.1 1.6 3 4 2.9m-.5 25.6c-1.8-1-2.8 1.8-1.2 2 0-1 1.6-.6 1.2-2m-2.7-10.3c.4-2.2-2.6-2.4-2.6-.5.9.2 1.3.9 2.6.5m-3.4 5.4c-1.9 2.3 2.5 1.8 0 0m46.33 23.3c1.7 2.4-1 2.9-1.7 4.9 3.1.7 4.1-4.5 1.7-4.9m69.54-31c1.4 1.4 2.9 2.6 4.3 4 8.71-2.1 18.12 1.2 24.82-4.4.8-3 1.1-5.6.1-9-6.1-2.2-14.7-13.3-23.71-8.3-1.6 2.4-.4 7.2-3.7 8 .7 4.4-2.8 5-1.8 9.7m-284.4 18c-1.6.6-3.3 1.2-4.9 1.9-.7 8.8 9.1 4.9 4.9-1.9m148.1 11.1c2.4.5 7-.3 8-1.2-3.4-.9-5.1 1-8 1.2m20.61-2h-1.4c-.4.2-.7.4-.7.7h2.1v-.7m-96.96-1.3c-.5.8-.5.5 0 1.2 2.8.3 2.8-1.4 0-1.2m-9.4-3c-.2.6.1 1 .7 1.2 1.4-.2 2.5-.8 1.4-1.2h-2.1m-16.52-2.4c1.4-.1 3-1.5 1.4-2-2.1.1-2.4 1.6-1.4 2m127.09 7.9c.1.3.9.2 1.4.2 0-.2-.9-.1-1.4-.2m8.2-1.3c-2.9-.7-6.8.3-8 1.2 2.1-.6 6.3-.4 8-1.2m-52.43-11c-1.5.1-3 .4-1.4 1 .9-.2 1.3-.5 1.4-1m22.21-.4c-1.4.5-3.2.9-3.8 1.7 2-.2 4.8-1.1 3.8-1.7m61.24 9.2c-.3-.2-.7-.4 0-.5a7 7 0 0 0-3.8 0c.3-.3.8-.4.9-.9-.9-.5-2 .6-1.6 1.1-.4.1-.7.2-1 .3.6-.3 1-.9-.1-1.2 0 .4 0 .8-.5.7-.1-.4-.1-.7-.6-.6-.3 1.2.2 1.4.8 1.3-.4.2-.8.3-1.1.5 2.7-.1 4.5-.5 7-.7m-197.03-9.1c1.9-1.2.8-1.6-1.1-2.4-2.1.6-3.4 2.5 1.1 2.4m72.85-1.6c2.3 0 3.1-1.4 0-1.2-.9.3-.9.9 0 1.2m58.04-11.7c-2.3.1-2.2 1.3-2.9 2.2 1.6-.5 3.6-.8 2.9-2.2M946.65 107c-.1.5.1 1.1.4 1.7-.2-.1-.4-.1-.6-.1-2.2 0-4 1.6-4 3.6s1.8 3.6 4 3.6 4-1.6 4-3.6v-.1h1.1c.3-2.7-3.6-4.9-4.3-7.3-3.6-.2-1.2 1.9-.6 2.2m106.78 13.9c4.3-.4 6.8-.1 8.2-1.8-3.2.1-5.4.6-6.5 1.5-1.8-.1-2.3.4-3.5.5-.2.5 2.7.4 1.8-.2M886.9 140.6h-2.1c-.2.5.1.9.7 1.2 1.4-.2 2.5-.8 1.4-1.2m-17.01-4.8c-1.3 0-1.8.6-1.7 1.1-.3.1-.5.3-.7.4l.9 1.5 1.5-.9c-.1-.2-.3-.4-.4-.6.9-.4 1.5-1.2.4-1.5m79.86-1c.9-.2 1.3-.6 1.4-1-1.4.2-2.9.5-1.4 1m-83.16-10c-3.6 0-3 2.5-3.2 3-1.6.5-1.8 1.9-1.9 3.4.6.1 1 .4 1.3.6h1.9c1.1-.6.7-1.7 2.5-2.1-.4-1.6 3.5-4-.6-4.9m-36.73-15.4c-.4 1.9 3.2 3.6 2.9 4.8.1.2 1.1.2 1.8.2.1-.8-.2-1.6-.7-2.3.1.1.2.2.3.2.3-.1.6-.3.9-.4v.2c0 2 1.9 3.7 4.2 3.7 2.31 0 4.21-1.7 4.21-3.7s-1.9-3.7-4.2-3.7c-.9 0-1.6.2-2.3.6-.2-2.5-3.6-4.9-5.5-1.7-.1.7.3 1.7.8 2.7-.8-.9-1.5-1.8-1.8-2.7-3.61-.2-1.2 1.8-.6 2.1m105.47 13.4c4.3-.3 6.8 0 8.2-1.8-3.2.1-5.4.6-6.5 1.5-1.8-.1-2.3.4-3.5.5-.2.5 2.7.4 1.8-.2m-871 18c2.2.3 4.3.6 6.5 1 .6-1.5 2.1-.6 2.8-1.7-1.1-.5-.2-1.4.3-2.2-.8-.6-1.8-1.2-1.5-2.4-.9-.3-1.7-.7-2.5-1.1-.2-2.7-4-3.4-6.3-3.6-.6 1.1-.7 2.7 0 3-2 1.8-.5 3-1.7 4.6 1.6.6 1.3 1.6 2.4 2.4m-11.31-4.1c-5.2-1.3-8.91-3.3-12.21.2-.3-.2-.2-.4-.5-.6-1.3.9-1.6 2.1-1.3 2.9.3 1 .1.7.8 1.5.2.2-.3.7-.2.9 2.1 3.2 9 3.6 11.7 4.1 1.6-1.2 4-.4 5.8-1.1 1.11-.8-1.4-1-.6-1.7 1.11-2.3 5.31-.6 5.41-3.1-.3-1.5-6.6-4.1-8.4-5-.6.7.8 1.1-.5 1.9m-7.9 12.4c1.2.8 1.7.1 2 1 .2-.3.5-.6.7-.9-1.1-.5-2.3-1.5-2.7-.1m-12.22-3.9c.7 1.5 2.8 1.1 4 1.5.1-.5 1.6-1.2.7-1.6-1.2.7.7-1.2-.5-1.4-1.5.6-.9-.2-1.9-.9-.6 1.2-1.7 1.1-2.3 2.4m-2.3 5.5c.6-.1 1-.8 1.3-1.6-1.1-1-.8-.8-2.1-1.4l-.9 1.5c1.1.4.6 1.1 1.7 1.5m14.21-27.6c.4-.5.6-1 .5-1.4-1-.9-1.2.3-1.7.8l1.2.6m-19.01 24.5c.4-.6.8-1.2 1.1-1.7-1.6-1-3-1.2-4-.3.8 1.1 1.4 1.5 2.9 2m13.9-24.6c.3.1.5.3.1.5.6.2 1.1.4 1.3-.2-.5-.2-1.1-.6-1.4-.3m-5.5 8.3-1.2-.6c-1.3.6 1.1 1.7 1.2.6m-15.9 16.8c-.2 1.2-1.2-.4-1.3.8.7.5.6 1.1 1.7 1.5.2-1.2 1.1.4 1.3-.8-.7-.5-.6-1.1-1.7-1.5m-7.91-4.4c-.4-1-1-.2-1.3-1.1-.2.2-.3.4-.5.6-.5.8 1.6 1.1 1.8.5m1368.44 6.2c.5.8.9 1.5 1.4 1.5 1-.5 2-1.1 1.4-2-.6-.9-1.8 0-2.8.5m0-7.7c-.5-1.4-1.6-1.2-2.3-2.3-.9.6-.4 1.4-1.9.9-1.2.1.7 2.1-.5 1.4-.8.3.6 1.1.7 1.6 1.3-.5 3.3-.1 4-1.6m2.4 5.5c1-.4.6-1.1 1.7-1.5l-.9-1.5c-1.3.6-1 .5-2.1 1.4.3.8.7 1.5 1.3 1.6m-15.7-29c-.1.4.1.9.5 1.4l1.2-.6c-.5-.5-.7-1.7-1.7-.8m23.3 23.8c-1-.9-2.4-.6-4 .2.3.6.7 1.2 1.1 1.8 1.6-.4 2.1-.9 2.9-2m-17.7-22.5c-.4-.3-1 .1-1.5.3.3.6.8.4 1.3.2-.2-.2 0-.4.2-.5m7.7 7.7-1.2.6c.1 1.1 2.5 0 1.2-.6m13.41 19.7c1-.4.9-1 1.7-1.5-.2-1.2-1.1.4-1.3-.8-1.1.4-1 1.1-1.7 1.5.2 1.2 1.1-.4 1.3.8m-8.4-20.4c-.9-1.5-1.9-.7-3 .2.2.4.5.8.7 1.2 1.4-.7 1.1-.5 2.3-1.4m18.4 14.2c-.1-.2-.3-.4-.4-.6-.4.9-1 .2-1.4 1.1.1.5 2.2.3 1.8-.5m6.51 1.6c.5-.6 3.6-1.2 3.1-2.4-.4-1.3-2 .5-2.5-.6-1.1.4-2.1 1.9-3.4 1.5-.4.7 2.2.7 2.8 1.5m14.11 3.8c.8 1.2.5 1.2 1.6 2.2.8-.5 1.7-.9 2.5-1.3-.5-.8-1.1-1.5-2.1-.8-.1-.3.5-.5.9-.8-.9-1.9-2.8-.9-4.4-.8-1.1.1-.3 1.7-1.2 1-.4.3 0 .6.2 1 .4-1.3 1.2.8 2.5-.5m5.2-7.6 1.2-.6c-.3-.3-.5-.6-.7-.9-.2.4-.4.7-.8.4-.4.1-.3.3-.2.5.2.2.3.4.5.6m-44.23-21.2c-.5.2-.9.4-1.1.1-.7.1-.5.5-.5.8.7 0 1.5-.1 2.2-.2-.3-.2-.6-.3-.6-.7M875 97.8h.2c1.9 0 3.4-1.3 3.4-3s-1.5-3-3.4-3h-.2c-1.9 0-3.4 1.3-3.4 3s1.5 3 3.4 3m-21.51-3c0 1.6 1.6 3 3.5 3s3.5-1.3 3.5-3-1.6-3-3.5-3-3.5 1.3-3.5 3m-14.41 3c1.9 0 3.4-1.4 3.5-3 0-1.7-1.6-3-3.5-3s-3.5 1.3-3.5 3 1.6 3 3.5 3m-20.62-3c0 1.6 1.6 3 3.5 3s3.5-1.3 3.5-3-1.6-3-3.5-3-3.5 1.3-3.5 3m56.54 21h.2c2.4 0 4.4-1.8 4.4-4s-2-4-4.4-4h-.2c-2.4 0-4.4 1.8-4.4 4s2 4 4.4 4m-18.4 0c2.2 0 3.9-1.8 4-4a4.01 4.01 0 0 0-8.01 0c0 2.2 1.8 4 4 4m-36.12-8c-2.2 0-4 1.5-4 3.5s1.8 3.5 4 3.5 4-1.6 4-3.5-1.8-3.5-4-3.5m-17.02 0c-2.2 0-4 1.5-4 3.5s1.8 3.5 4 3.5 4-1.6 4-3.5-1.8-3.5-4-3.5m71.55 24h.2c3 0 5.4-2.2 5.4-5s-2.4-5-5.4-5h-.2c-3 0-5.4 2.2-5.4 5s2.4 5 5.4 5m-54.43 0c2.7 0 4.9-2 5-4.5 0-2.5-2.2-4.5-5-4.5s-5 2-5 4.5 2.2 4.5 5 4.5m72.55-34c1.9 0 3.4-1.4 3.5-3 0-1.7-1.6-3-3.5-3s-3.5 1.3-3.5 3 1.6 3 3.5 3m18 0c1.91 0 3.41-1.4 3.51-3 0-1.7-1.6-3-3.5-3s-3.5 1.3-3.5 3 1.6 3 3.5 3m18.01-6c-2 0-3.6 1.3-3.5 3 0 1.7 1.6 3 3.5 3s3.5-1.3 3.5-3-1.6-3-3.5-3m-17.51 23c2.2 0 3.9-1.6 4-3.5 0-1.9-1.8-3.5-4-3.5s-4 1.6-4 3.5 1.8 3.5 4 3.5m16.91-7c-2.2 0-4 1.5-4 3.5s1.8 3.5 4 3.5 4-1.6 4-3.5-1.8-3.5-4-3.5m40.03 3.5c0-2-1.7-3.5-4-3.5s-4 1.6-4 3.5 1.8 3.5 4 3.5 4-1.6 4-3.5m-75.95 20.5c2.7 0 5-2 5-4.5s-2.2-4.5-5-4.5-5 2-5 4.5 2.2 4.5 5 4.5m23.91-4.3c0-2.4-2.2-4.3-5.1-4.3-.5 0-1 .1-1.5.2-.8-.1-1.6-.3-2.4-.6-1.1.8-.8 1.6-.2 2.4-.5.7-.8 1.4-.8 2.3 0 2.4 2.2 4.3 5 4.3s5-1.9 5-4.3m17.01-.2c0-2.5-2.2-4.5-5-4.5s-5 2-5 4.5 2.2 4.5 5 4.5 5-2 5-4.5m12.61-4.5c-2.5 0-4.6 1.8-4.5 4 0 2.2 2 4 4.5 4s4.5-1.8 4.5-4-2-4-4.5-4"/><path d="M965.27 132.4a5 5 0 0 0 3.8-1.7c.7 1.3 1.7 2.5 2.9 3.7-1.3.4-2.5.7-3 1.3 1.2-.1 2.7-.4 3.5-.8.1.2.3.3.5.5 3.6-.3 6.8 1.1 10.3 1.3 7.41-2.9 8.31-7.6 11.42-11.6-1.8-2.8.1-4.8-2.7-7.9-2.7-7.9-11.21-7.3-17.92-5-2.7 2.3-4.8 5-5.9 7.8-2.5.2-2.4 1.2-3.1 2 .9-.3 2-.5 2.7-.8-.3 1.1-.5 2.2-.5 3.4-.6-.2-1.3-.4-2-.4-2.5 0-4.6 1.8-4.6 4.1s2.1 4.1 4.6 4.1m35.32-1.6c2.3 0 4-1.6 4-3.5s-1.8-3.5-4-3.5-4 1.6-4 3.5 1.8 3.5 4 3.5m-641.44-33h.2c1.6 0 2.9-1.1 2.9-2.5s-1.3-2.5-2.9-2.5h-.2c-1.6 0-2.9 1.1-2.9 2.5s1.3 2.5 2.9 2.5m-17.41-.5c-.5 0-.9.1-1.4.2.4 1.7 2.9 1.7 3.4 3.3 8.8-.8 12.2 5.2 20.41 3.6-3.5-3-8.5-4.8-15.3-5-.91-1.2-3.31-2.1-5.61-2.2 1.3-.3 2.2-1.3 2.2-2.6 0-1.5-1.4-2.8-3.1-2.8-1.7 0-3.1 1.3-3.1 2.8 0 1.4 1.1 2.4 2.5 2.7m-15.62.5c1.7 0 3-1.2 3-2.5 0-1.4-1.3-2.5-3-2.5s-3 1.1-3 2.5 1.3 2.5 3 2.5m-17 0c1.7 0 3-1.2 3-2.5 0-1.4-1.3-2.5-3-2.5s-3 1.1-3 2.5 1.3 2.5 3 2.5m50.03 16h.2c2.1 0 3.9-1.6 3.9-3.5s-1.7-3.5-3.9-3.5h-.2c-2.1 0-3.9 1.6-3.9 3.5s1.7 3.5 3.9 3.5m-17.01 0c2.3 0 4-1.6 4-3.5s-1.8-3.5-4-3.5-4 1.6-4 3.5 1.8 3.5 4 3.5m-16.02 0c2.3 0 4-1.6 4-3.5s-1.8-3.5-4-3.5-4 1.6-4 3.5 1.8 3.5 4 3.5m-16.5 0c2 0 3.5-1.6 3.5-3.5s-1.6-3.5-3.5-3.5-3.5 1.6-3.5 3.5 1.6 3.5 3.5 3.5m-16.02 0c2 0 3.5-1.6 3.5-3.5s-1.6-3.5-3.5-3.5-3.5 1.6-3.5 3.5 1.6 3.5 3.5 3.5m-15.9 0c1.9 0 3.5-1.3 3.5-3s-1.6-3-3.5-3c-1.91 0-3.51 1.3-3.51 3s1.6 3 3.5 3m81.46 16h.2c2.7 0 4.9-2 4.9-4.5s-2.2-4.5-4.9-4.5h-.2c-2.7 0-4.9 2-4.9 4.5s2.2 4.5 4.9 4.5m-17.01 0c2.8 0 5-2 5-4.5s-2.2-4.5-5-4.5-5 2-5 4.5 2.2 4.5 5 4.5m-15.41 0c2.4 0 4.5-1.8 4.5-4s-2-4-4.5-4-4.5 1.8-4.5 4 2 4 4.5 4m-17.02 0c2.4 0 4.5-1.8 4.5-4s-2-4-4.5-4-4.5 1.8-4.5 4 2 4 4.5 4m-16.6 0c2.3 0 4-1.8 4-4s-1.8-4-4-4-4.01 1.8-4.01 4 1.8 4 4 4m66.05 16h.2c3.2 0 5.9-2.5 5.9-5.5s-2.6-5.5-5.9-5.5h-.2c-3.2 0-5.9 2.5-5.9 5.5s2.6 5.5 5.9 5.5m-32.42-1c3 0 5.4-2.3 5.5-5 0-2.8-2.5-5-5.5-5s-5.5 2.2-5.5 5 2.5 5 5.5 5m-17.62 0c2.8 0 5-2.1 5-4.5s-2.2-4.5-5-4.5-5 2-5 4.5 2.2 4.5 5 4.5m-16 0c2.8 0 5-2.1 5-4.5s-2.2-4.5-5-4.5c-2.81 0-5.01 2-5.01 4.5s2.2 4.5 5 4.5m82.06-47c1.7 0 3-1.2 3-2.5 0-1.4-1.3-2.5-3-2.5s-3 1.1-3 2.5 1.3 2.5 3 2.5m13-2.5c0 1.3 1.4 2.5 3.01 2.5 1.7 0 3-1.1 3-2.5s-1.3-2.5-3-2.5-3 1.1-3 2.5m21.01 2.5c1.7 0 3-1.2 3-2.5 0-1.4-1.3-2.5-3-2.5s-3 1.1-3 2.5 1.3 2.5 3 2.5m-34.02 16c2.3 0 4-1.6 4-3.5s-1.8-3.5-4-3.5-4 1.6-4 3.5 1.8 3.5 4 3.5m16.11 0c2.2 0 3.9-1.6 4-3.5 0-1.9-1.8-3.5-4-3.5s-4 1.6-4 3.5 1.8 3.5 4 3.5m17.51 0c1.9 0 3.4-1.6 3.5-3.5 0-1.9-1.6-3.5-3.5-3.5s-3.5 1.6-3.5 3.5 1.6 3.5 3.5 3.5m-33.62 16c2.8 0 5-2 5-4.5s-2.2-4.5-5-4.5-5 2-5 4.5 2.2 4.5 5 4.5m16.61 0c2.4 0 4.5-1.8 4.5-4s-2-4-4.5-4-4.5 1.8-4.5 4 2 4 4.5 4m17.01 0c2.4 0 4.5-1.8 4.5-4s-2-4-4.5-4-4.5 1.8-4.5 4 2 4 4.5 4m15.81 0c2.1 0 3.9-1.5 4.3-3.4.3-.2.6-.5 1.2-.6-.4-1.6 3.4-4.1-.6-5-1.9 0-2.6.7-2.9 1.5-.6-.3-1.3-.5-2-.5-2.4 0-4.3 1.8-4.3 4s1.9 4 4.3 4m17.61-8c-2.2 0-4 1.6-4 3.5s1.8 3.5 4 3.5 4-1.6 4-3.5-1.8-3.5-4-3.5m20.02 3.5c0-2-1.7-3.5-4-3.5s-4 1.6-4 3.5 1.8 3.5 4 3.5 4-1.6 4-3.5M43.83 73.2c0-.4.1-.7.6-.6v-1.3c-.7.1-1.8-.2-1.9.6.9 0 .6 1.1 1.3 1.3m8.3 12.5c7.91 1.2 5.1-11.3-1.4-7.1-.7 1.4-.8 3.2-.7 5.3 1 .3 1.3 1.3 2.1 1.8m145.1-18.9c2.8-1.1 5.61-2.2 7.71-4 .2-2.9 1.5-4.6 1.1-8.1-1.3-2.4-2.5-5-4.9-6.3-10-2.9-14.11 6.1-11 14.4 2.2 1.4 4.2 3.2 7.1 4m-92.47 23.5v1.9c1.9 1 1.9-2.9 0-1.9m37.03-28.9c2.2 1.9 1.9-2.4 0 0m-.8 9.9c.3-2.2-.4-3.5-.5-5.4-2.1-.4-1.8-.1-4.1 0-.7 2.3 0 2.7 0 5.4 2.1-.1 2.8 1 4.6 0m-33.63 39.2c-1.9 2.2 2.4 1.9 0 0M272 96c-.1-1.9 1.1-2.5 1.1-4.3-1.4-1.8-4.2-.6-6.7-.5-.9 1.5-1.6 3.1-2.3 4.8 2.2 1.5 4.8.3 7.9 0m-54.04.3v1.3c.7-.1.8.5 1.3.6-.1-1 .1-2.2-1.3-1.9m-6.9-2.9c-1.6-1.8-4.1.7-2.3 2.3 1.8.3 2.6-.5 2.3-2.3m-93.37 3.9c1-.1 1.8.1 2.3.5.4-2.2-1.2-2.6-2.9-3-.2 1.2 1.1 1.1.6 2.5m114.28 2.9c0-.4.1-.7.6-.6v-1.3c-.7.1-1.8-.2-1.9.6.9 0 .6 1.1 1.3 1.3m48.93-26.9v1.9c1.9 1 1.9-2.9 0-1.9m-24.31 6s.1.6 0 .6c-3.1 3.6 3.1-1.1 0-.6m-129.4 32.9c0-1.1-.5-1.6-1.3-1.9.1 1-.1 2.2 1.3 1.9M295.6 81.4c-.6-.5-1.9.4-1.9.6-1 2.5 3.2.5 1.9-.6M230.36 119v2.6c1.5.2 2.4-.2 2.6-1.3-1-.3-.6-2-2.6-1.3m8.6 2c0 1.1-.2 2-.7 2.6h2.6c.2-1.7-.2-2.8-1.9-2.6m15.02 1.9h1.3v-1.3h-1.3v1.3m-19.02 1h1.3v-1.3h-1.3v1.3m44.13-28.5c-.6 3.8 2.8.3 0 0M293.7 98c-4.1-.8-1.4 1.9 0 0m-24.01 3c-.5 1.5 2.5 1.4 1.9 0-.2-.5-1.7-.8-1.9 0M144.8 129.3v1.9c1.9 1 1.9-2.9 0-1.9M57.84 48.5v-2.6h-2.6c-.5 2.2.4 3.1 2.6 2.6M255.08 106c0-.5-.2-.7-.5-.7-.2-.3-.7-.4-.9.1-.5.1-1 .1-1.3 0-1.3 2.5 3.3 2.8 2.7.6M48.73 54c-1-.1-.5-1.5-2-1.1-.7 1.8.2 1.5-.6 2.9 1.6.1 2-.9 2.6-1.8m20.22 5.8v-2.3c-1.8-3.1-6.9-2.4-5.8 2.8 2.3.7 3.9.5 5.8-.5m207.04 58.1h1.3v-1.3H276v1.3M148.4 146c1-1.6-2.2-1.9-1.9-.6.3 0 .7 0 .6.6h1.3M66.45 70.3h-1.9v1.9c1.7.5 1.2-1.3 1.9-1.9m-3.4 7.7c-.1 1.6-1.2 2 .6 2.6.5-.5 1.7-3.2-.6-2.6m-22.32 5.7c.3-2.2.5-2.3-.5-3.9-2.2-.2-3.4.6-3.2 2.8 1.1.5 1.8 1.4 3.7 1.1m31.72 9.1c.7-.8.5-2.5.5-4h-2.5c-.3 1.2-.8 2.3 0 4h2m56.24 14.5c1.7-.1 3.2-.1 2.9 1.7 2.6-1.3 4.3 1.6 6.4 1.7 6.2.4 10.71-3.9 13.91-7.5 2-5.7 1.1-13.7-1.2-18.4-3.4-.4-4.4-3.2-7.5-4-3.8.1-8-.2-11 .6-3.21 2.8-6.11 5.9-8.11 9.8-.5 7.4 2.3 11.5 4.6 16.1Zm18.01-15c-.1.6-.8.5-1.2.6.1-.6.8-.5 1.2-.6ZM89.66 76.8c6.1-.3 9.2-3.5 9.5-9.7-2.2-2.8-4.6-7.5-9.5-6.1-1.2-.3-1.2.7-2.4.4-2.1 2-3.2 6-3.2 8.9 1.1 2.8 2.6 5.3 5.6 6.5Zm1.5-1.6c0 .4-.5.3-.8.4 0-.4.4-.4.8-.4Zm-5.6-7.7c0-.4.5-.3.8-.4 0 .4-.5.3-.8.4ZM476.33 136c-.4.1-1 0-1 .4.4-.1 1 .1 1-.4m-6.1-2.9c1 1 2.5 3.6 4.5 2.3-1-.2.5-1 .5-1.6-1.3-.3-3.7-1.7-5-.7m-2 .5c-2.7-1.5-7.41-1.2-9.71-3-2.9.3-6.1-2.1-7.3.3.8 2.6 5.7 3.5 10.8 4-1.1.9 1.1 2.5 2.6 1.8-.4-1.2-1.8-1-2.5-1.8l5.1.3c-.2-1.2.9-.8 1-1.6m-25.41-18.9c.3 1.4 1.4 2.6 2.9 3.4-.6-.1-1.1-.1-1.8-.1-.1 2.4 3 2.1 4.3 3.3.1-.6 0-1.2-.2-1.6 1.1.6 2.2 1.3 3.1 1.9-2.4-1.8-3.9-4.9-6.3-6.7l1.1.3c1.2 1.7 3.7 2.3 5.6 3.4 4.9-2.1 10.5 3 15.81.6-4.3-5-13-6.4-22.61-7-.1-.1-.4-.2-.6-.4 0-.2.1-.5.1-.8 0-1.8-1.7-3.2-3.7-3.2-1.5 0-2.8.8-3.4 1.9-.9.1-1.51.6-1.91 1.5 1 2.5 4.3 2.9 7.6 3.5m140.8 9.6c.3-.7.8-1.2 1.1-1.9-1.6-1-2.2 1.6-1.1 1.9m2.7-8.3c.7.1.4.9.9 1.1.7-1-.6-2.5-.9-1.1m-122.08-8.4c-1.8-.4-2.7-3.9-5-2.5.6 1.6 3.4 3.2 5 2.5m-12.1-5.1c-.3 0-.7 0-1-.1 0 .5-.1 1-.1 1.5.5 0 1 .1 1.5.1.1-.7-.2-1.1-.4-1.5m66.24 5c.4-1.5.4-.9.2-2.5-2-.6-2.2 2.8-.2 2.5m7.7-7c.5-.5.8-1.3.7-2.4-.5 0-1-.1-1.5-.1-.9.6-.2 2 .8 2.5m-4.8-.3c.3 0 .6.1 1 .1 0-.7.1-1.3.1-2-.3-.1-.7-.1-1-.1 0 .7-.1 1.3-.1 2m-133.3-10.8c-1.2.1-1-1-2.4-.7-.9 1.5 2.4 1.5 2.4.7m39.23 2.1c-1-2.6-1.4 1.6 0 0m174.22 9.1c1.8.3 2.5-1.1 3-2.7-.9 1.1-3.2.1-3 2.7m-127.88-9c-.8-.1-.3-1.3-1.4-1.1-.5 1 1.1 2.3 1.4 1.1m64.64 2.2c.8-.9.8-3.8-.7-4-1.2.8-.3 3.6.7 4M414.3 82c-.4.1-1 0-1 .4.4-.1 1 .1 1-.4m-5.1-2.9c1.1 1.5 3.8 1.4 5 2.7-.6-1.7-3.1-3.8-5-2.7m70.74 4.2c1.2-1 .2-1.7-.9-2 .1.9.3 1.6.9 2m80.46 4.8c.9-1.3-1.1-2.3-1.4-1.1.8.1.3 1.3 1.4 1.1m-93.17-6.3c-.3-1.4-1.7-2.1-2.7-3-.9 1 1.2 2.5 2.7 3m-75.05-7c-.8-1.4-2.8-4-4.9-2.6.5.1.2.5-.1.9 1.8.4 3.1 1.4 5 1.7m168.92 6c-1.5 1.2-2.4 1.8-1.1 4 3.4.4 2.6-2.8 1.1-4m-21.42-3.4c1.1.8.8 3 1.5 4.3.4 0 .8.1 1.2.1.2-.5.5-.9.9-1.2.1-3 .2-5.8-.8-6.8-.1-.9.6-5.8-1.7-6-2.9 1.5-.6 6.5-1.1 9.6m-30.52 2.1c.7-.6.8-1.8.2-2.5-2.2-.4-1.8 2.5-.2 2.5m-37.22-25.7c-.4-1.6-.1-3.7-2.2-4-.8 2.5 1 3.1 2.2 4M586.8 63c.6-1.2-1.6-2.3-1.9-1.1 1.6-.5.3 1.6 1.9 1.1m-20.2-17.6c.1-2.2 2.7-5.4 2.7-9.4.5-.6 2.3-4.5-.1-4.3-.8 4.8-3.71 8.9-3.81 14 .4 0 1.1.2 1.2-.3m-5.3 13.9c.2-1.1 0-1.9-.9-2-.2 1.1 0 1.8.9 2m-68.25-.4c-.7.9 1.4 1.2 1.2.4-.9-.2-1.1-1-2.5-.9-.7-1.5-2.2-2.4-4.5-2.6.9 2.7 2.8 2.3 5.8 3.1m-6.3-2.9c0-.7-2.2-2.6-2-.6.1.7 1.2.5 2 .6"/></g></svg>